<?xml version="1.0" encoding="utf-8" standalone="no"?>
<!DOCTYPE svg PUBLIC "-//W3C//DTD SVG 1.1//EN"
  "http://www.w3.org/Graphics/SVG/1.1/DTD/svg11.dtd">
<svg xmlns:xlink="http://www.w3.org/1999/xlink" width="360pt" height="360pt" viewBox="0 0 360 360" xmlns="http://www.w3.org/2000/svg" version="1.1">
 <metadata>
  <rdf:RDF xmlns:dc="http://purl.org/dc/elements/1.1/" xmlns:cc="http://creativecommons.org/ns#" xmlns:rdf="http://www.w3.org/1999/02/22-rdf-syntax-ns#">
   <cc:Work>
    <dc:type rdf:resource="http://purl.org/dc/dcmitype/StillImage"/>
    <dc:date>2024-09-12T10:54:52.979611</dc:date>
    <dc:format>image/svg+xml</dc:format>
    <dc:creator>
     <cc:Agent>
      <dc:title>Matplotlib v3.5.3, https://matplotlib.org/</dc:title>
     </cc:Agent>
    </dc:creator>
   </cc:Work>
  </rdf:RDF>
 </metadata>
 <defs>
  <style type="text/css">*{stroke-linejoin: round; stroke-linecap: butt}</style>
 </defs>
 <g id="figure_1">
  <g id="patch_1">
   <path d="M 0 360 
L 360 360 
L 360 0 
L 0 0 
z
" style="fill: #ffffff"/>
  </g>
  <g id="axes_1">
   <g id="patch_2">
    <path d="M 45 320.4 
L 324 320.4 
L 324 43.2 
L 45 43.2 
z
" style="fill: #ffffff"/>
   </g>
   <g id="PathCollection_1">
    <defs>
     <path id="m48742c8dc1" d="M 0 5 
C 1.326016 5 2.597899 4.473168 3.535534 3.535534 
C 4.473168 2.597899 5 1.326016 5 0 
C 5 -1.326016 4.473168 -2.597899 3.535534 -3.535534 
C 2.597899 -4.473168 1.326016 -5 0 -5 
C -1.326016 -5 -2.597899 -4.473168 -3.535534 -3.535534 
C -4.473168 -2.597899 -5 -1.326016 -5 0 
C -5 1.326016 -4.473168 2.597899 -3.535534 3.535534 
C -2.597899 4.473168 -1.326016 5 0 5 
z
" style="stroke: #8c564b; stroke-opacity: 0.7"/>
    </defs>
    <g clip-path="url(#pe8c80e251d)">
     <use xlink:href="#m48742c8dc1" x="184.802568" y="63.9" style="fill: #8c564b; fill-opacity: 0.7; stroke: #8c564b; stroke-opacity: 0.7"/>
    </g>
   </g>
   <g id="PathCollection_2">
    <defs>
     <path id="mec2608920c" d="M 0 5 
C 1.326016 5 2.597899 4.473168 3.535534 3.535534 
C 4.473168 2.597899 5 1.326016 5 0 
C 5 -1.326016 4.473168 -2.597899 3.535534 -3.535534 
C 2.597899 -4.473168 1.326016 -5 0 -5 
C -1.326016 -5 -2.597899 -4.473168 -3.535534 -3.535534 
C -4.473168 -2.597899 -5 -1.326016 -5 0 
C -5 1.326016 -4.473168 2.597899 -3.535534 3.535534 
C -2.597899 4.473168 -1.326016 5 0 5 
z
" style="stroke: #aec7e8; stroke-opacity: 0.7"/>
    </defs>
    <g clip-path="url(#pe8c80e251d)">
     <use xlink:href="#mec2608920c" x="160.28489" y="117" style="fill: #aec7e8; fill-opacity: 0.7; stroke: #aec7e8; stroke-opacity: 0.7"/>
    </g>
   </g>
   <g id="PathCollection_3">
    <defs>
     <path id="mb144da38ea" d="M 0 5 
C 1.326016 5 2.597899 4.473168 3.535534 3.535534 
C 4.473168 2.597899 5 1.326016 5 0 
C 5 -1.326016 4.473168 -2.597899 3.535534 -3.535534 
C 2.597899 -4.473168 1.326016 -5 0 -5 
C -1.326016 -5 -2.597899 -4.473168 -3.535534 -3.535534 
C -4.473168 -2.597899 -5 -1.326016 -5 0 
C -5 1.326016 -4.473168 2.597899 -3.535534 3.535534 
C -2.597899 4.473168 -1.326016 5 0 5 
z
" style="stroke: #c7c7c7; stroke-opacity: 0.7"/>
    </defs>
    <g clip-path="url(#pe8c80e251d)">
     <use xlink:href="#mb144da38ea" x="156.547247" y="86.4" style="fill: #c7c7c7; fill-opacity: 0.7; stroke: #c7c7c7; stroke-opacity: 0.7"/>
    </g>
   </g>
   <g id="PathCollection_4">
    <defs>
     <path id="m6e8264a663" d="M 0 5 
C 1.326016 5 2.597899 4.473168 3.535534 3.535534 
C 4.473168 2.597899 5 1.326016 5 0 
C 5 -1.326016 4.473168 -2.597899 3.535534 -3.535534 
C 2.597899 -4.473168 1.326016 -5 0 -5 
C -1.326016 -5 -2.597899 -4.473168 -3.535534 -3.535534 
C -4.473168 -2.597899 -5 -1.326016 -5 0 
C -5 1.326016 -4.473168 2.597899 -3.535534 3.535534 
C -2.597899 4.473168 -1.326016 5 0 5 
z
" style="stroke: #2ca02c; stroke-opacity: 0.7"/>
    </defs>
    <g clip-path="url(#pe8c80e251d)">
     <use xlink:href="#m6e8264a663" x="162.338416" y="66.6" style="fill: #2ca02c; fill-opacity: 0.7; stroke: #2ca02c; stroke-opacity: 0.7"/>
    </g>
   </g>
   <g id="PathCollection_5">
    <defs>
     <path id="md36c5203be" d="M 0 5 
C 1.326016 5 2.597899 4.473168 3.535534 3.535534 
C 4.473168 2.597899 5 1.326016 5 0 
C 5 -1.326016 4.473168 -2.597899 3.535534 -3.535534 
C 2.597899 -4.473168 1.326016 -5 0 -5 
C -1.326016 -5 -2.597899 -4.473168 -3.535534 -3.535534 
C -4.473168 -2.597899 -5 -1.326016 -5 0 
C -5 1.326016 -4.473168 2.597899 -3.535534 3.535534 
C -2.597899 4.473168 -1.326016 5 0 5 
z
" style="stroke: #17becf; stroke-opacity: 0.7"/>
    </defs>
    <g clip-path="url(#pe8c80e251d)">
     <use xlink:href="#md36c5203be" x="173.606075" y="82.8" style="fill: #17becf; fill-opacity: 0.7; stroke: #17becf; stroke-opacity: 0.7"/>
    </g>
   </g>
   <g id="PathCollection_6">
    <g clip-path="url(#pe8c80e251d)">
     <use xlink:href="#mb144da38ea" x="188.507634" y="67.5" style="fill: #c7c7c7; fill-opacity: 0.7; stroke: #c7c7c7; stroke-opacity: 0.7"/>
    </g>
   </g>
   <g id="PathCollection_7">
    <defs>
     <path id="ma98a8b6f93" d="M 0 5 
C 1.326016 5 2.597899 4.473168 3.535534 3.535534 
C 4.473168 2.597899 5 1.326016 5 0 
C 5 -1.326016 4.473168 -2.597899 3.535534 -3.535534 
C 2.597899 -4.473168 1.326016 -5 0 -5 
C -1.326016 -5 -2.597899 -4.473168 -3.535534 -3.535534 
C -4.473168 -2.597899 -5 -1.326016 -5 0 
C -5 1.326016 -4.473168 2.597899 -3.535534 3.535534 
C -2.597899 4.473168 -1.326016 5 0 5 
z
" style="stroke: #ff7f0e; stroke-opacity: 0.7"/>
    </defs>
    <g clip-path="url(#pe8c80e251d)">
     <use xlink:href="#ma98a8b6f93" x="99.166802" y="162.9" style="fill: #ff7f0e; fill-opacity: 0.7; stroke: #ff7f0e; stroke-opacity: 0.7"/>
    </g>
   </g>
   <g id="PathCollection_8">
    <g clip-path="url(#pe8c80e251d)">
     <use xlink:href="#mec2608920c" x="142.867992" y="112.5" style="fill: #aec7e8; fill-opacity: 0.7; stroke: #aec7e8; stroke-opacity: 0.7"/>
    </g>
   </g>
   <g id="PathCollection_9">
    <defs>
     <path id="mb4b4759ab1" d="M 0 5 
C 1.326016 5 2.597899 4.473168 3.535534 3.535534 
C 4.473168 2.597899 5 1.326016 5 0 
C 5 -1.326016 4.473168 -2.597899 3.535534 -3.535534 
C 2.597899 -4.473168 1.326016 -5 0 -5 
C -1.326016 -5 -2.597899 -4.473168 -3.535534 -3.535534 
C -4.473168 -2.597899 -5 -1.326016 -5 0 
C -5 1.326016 -4.473168 2.597899 -3.535534 3.535534 
C -2.597899 4.473168 -1.326016 5 0 5 
z
" style="stroke: #7f7f7f; stroke-opacity: 0.7"/>
    </defs>
    <g clip-path="url(#pe8c80e251d)">
     <use xlink:href="#mb4b4759ab1" x="123.865429" y="270" style="fill: #7f7f7f; fill-opacity: 0.7; stroke: #7f7f7f; stroke-opacity: 0.7"/>
    </g>
   </g>
   <g id="PathCollection_10">
    <g clip-path="url(#pe8c80e251d)">
     <use xlink:href="#mec2608920c" x="174.498853" y="168.3" style="fill: #aec7e8; fill-opacity: 0.7; stroke: #aec7e8; stroke-opacity: 0.7"/>
    </g>
   </g>
   <g id="PathCollection_11">
    <g clip-path="url(#pe8c80e251d)">
     <use xlink:href="#mec2608920c" x="132.047911" y="199.8" style="fill: #aec7e8; fill-opacity: 0.7; stroke: #aec7e8; stroke-opacity: 0.7"/>
    </g>
   </g>
   <g id="PathCollection_12">
    <g clip-path="url(#pe8c80e251d)">
     <use xlink:href="#mec2608920c" x="216.779373" y="56.7" style="fill: #aec7e8; fill-opacity: 0.7; stroke: #aec7e8; stroke-opacity: 0.7"/>
    </g>
   </g>
   <g id="PathCollection_13">
    <defs>
     <path id="m326b27907f" d="M 0 5 
C 1.326016 5 2.597899 4.473168 3.535534 3.535534 
C 4.473168 2.597899 5 1.326016 5 0 
C 5 -1.326016 4.473168 -2.597899 3.535534 -3.535534 
C 2.597899 -4.473168 1.326016 -5 0 -5 
C -1.326016 -5 -2.597899 -4.473168 -3.535534 -3.535534 
C -4.473168 -2.597899 -5 -1.326016 -5 0 
C -5 1.326016 -4.473168 2.597899 -3.535534 3.535534 
C -2.597899 4.473168 -1.326016 5 0 5 
z
" style="stroke: #98df8a; stroke-opacity: 0.7"/>
    </defs>
    <g clip-path="url(#pe8c80e251d)">
     <use xlink:href="#m326b27907f" x="150.17168" y="78.3" style="fill: #98df8a; fill-opacity: 0.7; stroke: #98df8a; stroke-opacity: 0.7"/>
    </g>
   </g>
   <g id="PathCollection_14">
    <g clip-path="url(#pe8c80e251d)">
     <use xlink:href="#md36c5203be" x="219.260225" y="70.2" style="fill: #17becf; fill-opacity: 0.7; stroke: #17becf; stroke-opacity: 0.7"/>
    </g>
   </g>
   <g id="PathCollection_15">
    <g clip-path="url(#pe8c80e251d)">
     <use xlink:href="#md36c5203be" x="224.794238" y="63" style="fill: #17becf; fill-opacity: 0.7; stroke: #17becf; stroke-opacity: 0.7"/>
    </g>
   </g>
   <g id="PathCollection_16">
    <g clip-path="url(#pe8c80e251d)">
     <use xlink:href="#mb4b4759ab1" x="182.805089" y="105.3" style="fill: #7f7f7f; fill-opacity: 0.7; stroke: #7f7f7f; stroke-opacity: 0.7"/>
    </g>
   </g>
   <g id="PathCollection_17">
    <defs>
     <path id="m7b7b6ddab0" d="M 0 5 
C 1.326016 5 2.597899 4.473168 3.535534 3.535534 
C 4.473168 2.597899 5 1.326016 5 0 
C 5 -1.326016 4.473168 -2.597899 3.535534 -3.535534 
C 2.597899 -4.473168 1.326016 -5 0 -5 
C -1.326016 -5 -2.597899 -4.473168 -3.535534 -3.535534 
C -4.473168 -2.597899 -5 -1.326016 -5 0 
C -5 1.326016 -4.473168 2.597899 -3.535534 3.535534 
C -2.597899 4.473168 -1.326016 5 0 5 
z
" style="stroke: #9edae5; stroke-opacity: 0.7"/>
    </defs>
    <g clip-path="url(#pe8c80e251d)">
     <use xlink:href="#m7b7b6ddab0" x="197.21277" y="92.7" style="fill: #9edae5; fill-opacity: 0.7; stroke: #9edae5; stroke-opacity: 0.7"/>
    </g>
   </g>
   <g id="PathCollection_18">
    <defs>
     <path id="m399eaea324" d="M 0 5 
C 1.326016 5 2.597899 4.473168 3.535534 3.535534 
C 4.473168 2.597899 5 1.326016 5 0 
C 5 -1.326016 4.473168 -2.597899 3.535534 -3.535534 
C 2.597899 -4.473168 1.326016 -5 0 -5 
C -1.326016 -5 -2.597899 -4.473168 -3.535534 -3.535534 
C -4.473168 -2.597899 -5 -1.326016 -5 0 
C -5 1.326016 -4.473168 2.597899 -3.535534 3.535534 
C -2.597899 4.473168 -1.326016 5 0 5 
z
" style="stroke: #dbdb8d; stroke-opacity: 0.7"/>
    </defs>
    <g clip-path="url(#pe8c80e251d)">
     <use xlink:href="#m399eaea324" x="116.77344" y="134.1" style="fill: #dbdb8d; fill-opacity: 0.7; stroke: #dbdb8d; stroke-opacity: 0.7"/>
    </g>
   </g>
   <g id="PathCollection_19">
    <g clip-path="url(#pe8c80e251d)">
     <use xlink:href="#m7b7b6ddab0" x="182.752612" y="69.3" style="fill: #9edae5; fill-opacity: 0.7; stroke: #9edae5; stroke-opacity: 0.7"/>
    </g>
   </g>
   <g id="PathCollection_20">
    <g clip-path="url(#pe8c80e251d)">
     <use xlink:href="#m7b7b6ddab0" x="178.326234" y="73.8" style="fill: #9edae5; fill-opacity: 0.7; stroke: #9edae5; stroke-opacity: 0.7"/>
    </g>
   </g>
   <g id="PathCollection_21">
    <g clip-path="url(#pe8c80e251d)">
     <use xlink:href="#mb4b4759ab1" x="151.287421" y="180" style="fill: #7f7f7f; fill-opacity: 0.7; stroke: #7f7f7f; stroke-opacity: 0.7"/>
    </g>
   </g>
   <g id="PathCollection_22">
    <g clip-path="url(#pe8c80e251d)">
     <use xlink:href="#mb4b4759ab1" x="155.00519" y="104.4" style="fill: #7f7f7f; fill-opacity: 0.7; stroke: #7f7f7f; stroke-opacity: 0.7"/>
    </g>
   </g>
   <g id="PathCollection_23">
    <g clip-path="url(#pe8c80e251d)">
     <use xlink:href="#md36c5203be" x="228.734667" y="56.7" style="fill: #17becf; fill-opacity: 0.7; stroke: #17becf; stroke-opacity: 0.7"/>
    </g>
   </g>
   <g id="PathCollection_24">
    <g clip-path="url(#pe8c80e251d)">
     <use xlink:href="#mb144da38ea" x="120.534447" y="307.8" style="fill: #c7c7c7; fill-opacity: 0.7; stroke: #c7c7c7; stroke-opacity: 0.7"/>
    </g>
   </g>
   <g id="PathCollection_25">
    <g clip-path="url(#pe8c80e251d)">
     <use xlink:href="#m7b7b6ddab0" x="174.244624" y="108.9" style="fill: #9edae5; fill-opacity: 0.7; stroke: #9edae5; stroke-opacity: 0.7"/>
    </g>
   </g>
   <g id="PathCollection_26">
    <g clip-path="url(#pe8c80e251d)">
     <use xlink:href="#mb4b4759ab1" x="152.212908" y="130.5" style="fill: #7f7f7f; fill-opacity: 0.7; stroke: #7f7f7f; stroke-opacity: 0.7"/>
    </g>
   </g>
   <g id="PathCollection_27">
    <g clip-path="url(#pe8c80e251d)">
     <use xlink:href="#mec2608920c" x="238.509394" y="55.8" style="fill: #aec7e8; fill-opacity: 0.7; stroke: #aec7e8; stroke-opacity: 0.7"/>
    </g>
   </g>
   <g id="PathCollection_28">
    <g clip-path="url(#pe8c80e251d)">
     <use xlink:href="#mb144da38ea" x="219.818169" y="75.6" style="fill: #c7c7c7; fill-opacity: 0.7; stroke: #c7c7c7; stroke-opacity: 0.7"/>
    </g>
   </g>
   <g id="PathCollection_29">
    <g clip-path="url(#pe8c80e251d)">
     <use xlink:href="#mb4b4759ab1" x="176.360673" y="89.1" style="fill: #7f7f7f; fill-opacity: 0.7; stroke: #7f7f7f; stroke-opacity: 0.7"/>
    </g>
   </g>
   <g id="PathCollection_30">
    <g clip-path="url(#pe8c80e251d)">
     <use xlink:href="#md36c5203be" x="207.130474" y="63.9" style="fill: #17becf; fill-opacity: 0.7; stroke: #17becf; stroke-opacity: 0.7"/>
    </g>
   </g>
   <g id="PathCollection_31">
    <g clip-path="url(#pe8c80e251d)">
     <use xlink:href="#mb4b4759ab1" x="186.799178" y="92.7" style="fill: #7f7f7f; fill-opacity: 0.7; stroke: #7f7f7f; stroke-opacity: 0.7"/>
    </g>
   </g>
   <g id="PathCollection_32">
    <g clip-path="url(#pe8c80e251d)">
     <use xlink:href="#md36c5203be" x="211.817146" y="59.4" style="fill: #17becf; fill-opacity: 0.7; stroke: #17becf; stroke-opacity: 0.7"/>
    </g>
   </g>
   <g id="PathCollection_33">
    <g clip-path="url(#pe8c80e251d)">
     <use xlink:href="#m399eaea324" x="176.483921" y="104.4" style="fill: #dbdb8d; fill-opacity: 0.7; stroke: #dbdb8d; stroke-opacity: 0.7"/>
    </g>
   </g>
   <g id="PathCollection_34">
    <g clip-path="url(#pe8c80e251d)">
     <use xlink:href="#mec2608920c" x="180.561239" y="74.7" style="fill: #aec7e8; fill-opacity: 0.7; stroke: #aec7e8; stroke-opacity: 0.7"/>
    </g>
   </g>
   <g id="PathCollection_35">
    <g clip-path="url(#pe8c80e251d)">
     <use xlink:href="#mec2608920c" x="156.253567" y="90" style="fill: #aec7e8; fill-opacity: 0.7; stroke: #aec7e8; stroke-opacity: 0.7"/>
    </g>
   </g>
   <g id="PathCollection_36">
    <g clip-path="url(#pe8c80e251d)">
     <use xlink:href="#mec2608920c" x="194.336751" y="123.3" style="fill: #aec7e8; fill-opacity: 0.7; stroke: #aec7e8; stroke-opacity: 0.7"/>
    </g>
   </g>
   <g id="PathCollection_37">
    <g clip-path="url(#pe8c80e251d)">
     <use xlink:href="#m48742c8dc1" x="183.573687" y="69.3" style="fill: #8c564b; fill-opacity: 0.7; stroke: #8c564b; stroke-opacity: 0.7"/>
    </g>
   </g>
   <g id="PathCollection_38">
    <g clip-path="url(#pe8c80e251d)">
     <use xlink:href="#m48742c8dc1" x="186.878193" y="275.4" style="fill: #8c564b; fill-opacity: 0.7; stroke: #8c564b; stroke-opacity: 0.7"/>
    </g>
   </g>
   <g id="PathCollection_39">
    <g clip-path="url(#pe8c80e251d)">
     <use xlink:href="#m48742c8dc1" x="153.216289" y="270" style="fill: #8c564b; fill-opacity: 0.7; stroke: #8c564b; stroke-opacity: 0.7"/>
    </g>
   </g>
   <g id="PathCollection_40">
    <g clip-path="url(#pe8c80e251d)">
     <use xlink:href="#m326b27907f" x="199.051579" y="73.8" style="fill: #98df8a; fill-opacity: 0.7; stroke: #98df8a; stroke-opacity: 0.7"/>
    </g>
   </g>
   <g id="PathCollection_41">
    <g clip-path="url(#pe8c80e251d)">
     <use xlink:href="#m48742c8dc1" x="174.198389" y="78.3" style="fill: #8c564b; fill-opacity: 0.7; stroke: #8c564b; stroke-opacity: 0.7"/>
    </g>
   </g>
   <g id="PathCollection_42">
    <g clip-path="url(#pe8c80e251d)">
     <use xlink:href="#mec2608920c" x="125.86063" y="126" style="fill: #aec7e8; fill-opacity: 0.7; stroke: #aec7e8; stroke-opacity: 0.7"/>
    </g>
   </g>
   <g id="PathCollection_43">
    <g clip-path="url(#pe8c80e251d)">
     <use xlink:href="#m48742c8dc1" x="221.173403" y="59.4" style="fill: #8c564b; fill-opacity: 0.7; stroke: #8c564b; stroke-opacity: 0.7"/>
    </g>
   </g>
   <g id="PathCollection_44">
    <g clip-path="url(#pe8c80e251d)">
     <use xlink:href="#m48742c8dc1" x="145.136281" y="117.9" style="fill: #8c564b; fill-opacity: 0.7; stroke: #8c564b; stroke-opacity: 0.7"/>
    </g>
   </g>
   <g id="PathCollection_45">
    <g clip-path="url(#pe8c80e251d)">
     <use xlink:href="#mb4b4759ab1" x="193.077251" y="71.1" style="fill: #7f7f7f; fill-opacity: 0.7; stroke: #7f7f7f; stroke-opacity: 0.7"/>
    </g>
   </g>
   <g id="PathCollection_46">
    <g clip-path="url(#pe8c80e251d)">
     <use xlink:href="#m399eaea324" x="239.770096" y="61.2" style="fill: #dbdb8d; fill-opacity: 0.7; stroke: #dbdb8d; stroke-opacity: 0.7"/>
    </g>
   </g>
   <g id="PathCollection_47">
    <g clip-path="url(#pe8c80e251d)">
     <use xlink:href="#md36c5203be" x="160.114768" y="84.6" style="fill: #17becf; fill-opacity: 0.7; stroke: #17becf; stroke-opacity: 0.7"/>
    </g>
   </g>
   <g id="PathCollection_48">
    <g clip-path="url(#pe8c80e251d)">
     <use xlink:href="#mb4b4759ab1" x="159.769999" y="180" style="fill: #7f7f7f; fill-opacity: 0.7; stroke: #7f7f7f; stroke-opacity: 0.7"/>
    </g>
   </g>
   <g id="PathCollection_49">
    <g clip-path="url(#pe8c80e251d)">
     <use xlink:href="#m326b27907f" x="102.330349" y="208.8" style="fill: #98df8a; fill-opacity: 0.7; stroke: #98df8a; stroke-opacity: 0.7"/>
    </g>
   </g>
   <g id="PathCollection_50">
    <g clip-path="url(#pe8c80e251d)">
     <use xlink:href="#mb4b4759ab1" x="174.119041" y="108" style="fill: #7f7f7f; fill-opacity: 0.7; stroke: #7f7f7f; stroke-opacity: 0.7"/>
    </g>
   </g>
   <g id="PathCollection_51">
    <defs>
     <path id="mc7e013182f" d="M 0 5 
C 1.326016 5 2.597899 4.473168 3.535534 3.535534 
C 4.473168 2.597899 5 1.326016 5 0 
C 5 -1.326016 4.473168 -2.597899 3.535534 -3.535534 
C 2.597899 -4.473168 1.326016 -5 0 -5 
C -1.326016 -5 -2.597899 -4.473168 -3.535534 -3.535534 
C -4.473168 -2.597899 -5 -1.326016 -5 0 
C -5 1.326016 -4.473168 2.597899 -3.535534 3.535534 
C -2.597899 4.473168 -1.326016 5 0 5 
z
" style="stroke: #9467bd; stroke-opacity: 0.7"/>
    </defs>
    <g clip-path="url(#pe8c80e251d)">
     <use xlink:href="#mc7e013182f" x="213.81519" y="62.1" style="fill: #9467bd; fill-opacity: 0.7; stroke: #9467bd; stroke-opacity: 0.7"/>
    </g>
   </g>
   <g id="PathCollection_52">
    <g clip-path="url(#pe8c80e251d)">
     <use xlink:href="#m326b27907f" x="223.027853" y="62.1" style="fill: #98df8a; fill-opacity: 0.7; stroke: #98df8a; stroke-opacity: 0.7"/>
    </g>
   </g>
   <g id="PathCollection_53">
    <g clip-path="url(#pe8c80e251d)">
     <use xlink:href="#mc7e013182f" x="201.958401" y="77.4" style="fill: #9467bd; fill-opacity: 0.7; stroke: #9467bd; stroke-opacity: 0.7"/>
    </g>
   </g>
   <g id="PathCollection_54">
    <defs>
     <path id="m69436b19a0" d="M 0 5 
C 1.326016 5 2.597899 4.473168 3.535534 3.535534 
C 4.473168 2.597899 5 1.326016 5 0 
C 5 -1.326016 4.473168 -2.597899 3.535534 -3.535534 
C 2.597899 -4.473168 1.326016 -5 0 -5 
C -1.326016 -5 -2.597899 -4.473168 -3.535534 -3.535534 
C -4.473168 -2.597899 -5 -1.326016 -5 0 
C -5 1.326016 -4.473168 2.597899 -3.535534 3.535534 
C -2.597899 4.473168 -1.326016 5 0 5 
z
" style="stroke: #1f77b4; stroke-opacity: 0.7"/>
    </defs>
    <g clip-path="url(#pe8c80e251d)">
     <use xlink:href="#m69436b19a0" x="170.45358" y="77.4" style="fill: #1f77b4; fill-opacity: 0.7; stroke: #1f77b4; stroke-opacity: 0.7"/>
    </g>
   </g>
   <g id="PathCollection_55">
    <g clip-path="url(#pe8c80e251d)">
     <use xlink:href="#m69436b19a0" x="107.203655" y="156.6" style="fill: #1f77b4; fill-opacity: 0.7; stroke: #1f77b4; stroke-opacity: 0.7"/>
    </g>
   </g>
   <g id="PathCollection_56">
    <g clip-path="url(#pe8c80e251d)">
     <use xlink:href="#mec2608920c" x="157.76125" y="107.1" style="fill: #aec7e8; fill-opacity: 0.7; stroke: #aec7e8; stroke-opacity: 0.7"/>
    </g>
   </g>
   <g id="PathCollection_57">
    <g clip-path="url(#pe8c80e251d)">
     <use xlink:href="#m326b27907f" x="217.306888" y="77.4" style="fill: #98df8a; fill-opacity: 0.7; stroke: #98df8a; stroke-opacity: 0.7"/>
    </g>
   </g>
   <g id="PathCollection_58">
    <defs>
     <path id="mf07c60e9a9" d="M 0 5 
C 1.326016 5 2.597899 4.473168 3.535534 3.535534 
C 4.473168 2.597899 5 1.326016 5 0 
C 5 -1.326016 4.473168 -2.597899 3.535534 -3.535534 
C 2.597899 -4.473168 1.326016 -5 0 -5 
C -1.326016 -5 -2.597899 -4.473168 -3.535534 -3.535534 
C -4.473168 -2.597899 -5 -1.326016 -5 0 
C -5 1.326016 -4.473168 2.597899 -3.535534 3.535534 
C -2.597899 4.473168 -1.326016 5 0 5 
z
" style="stroke: #c49c94; stroke-opacity: 0.7"/>
    </defs>
    <g clip-path="url(#pe8c80e251d)">
     <use xlink:href="#mf07c60e9a9" x="181.886491" y="88.2" style="fill: #c49c94; fill-opacity: 0.7; stroke: #c49c94; stroke-opacity: 0.7"/>
    </g>
   </g>
   <g id="PathCollection_59">
    <g clip-path="url(#pe8c80e251d)">
     <use xlink:href="#mb4b4759ab1" x="239.392495" y="75.6" style="fill: #7f7f7f; fill-opacity: 0.7; stroke: #7f7f7f; stroke-opacity: 0.7"/>
    </g>
   </g>
   <g id="PathCollection_60">
    <g clip-path="url(#pe8c80e251d)">
     <use xlink:href="#md36c5203be" x="203.181509" y="77.4" style="fill: #17becf; fill-opacity: 0.7; stroke: #17becf; stroke-opacity: 0.7"/>
    </g>
   </g>
   <g id="PathCollection_61">
    <g clip-path="url(#pe8c80e251d)">
     <use xlink:href="#m7b7b6ddab0" x="217.621665" y="81" style="fill: #9edae5; fill-opacity: 0.7; stroke: #9edae5; stroke-opacity: 0.7"/>
    </g>
   </g>
   <g id="PathCollection_62">
    <g clip-path="url(#pe8c80e251d)">
     <use xlink:href="#m399eaea324" x="217.938195" y="76.5" style="fill: #dbdb8d; fill-opacity: 0.7; stroke: #dbdb8d; stroke-opacity: 0.7"/>
    </g>
   </g>
   <g id="matplotlib.axis_1">
    <g id="xtick_1">
     <g id="line2d_1">
      <path d="M 45 320.4 
L 45 43.2 
" clip-path="url(#pe8c80e251d)" style="fill: none; stroke: #b0b0b0; stroke-width: 0.8; stroke-linecap: square"/>
     </g>
     <g id="line2d_2">
      <defs>
       <path id="mdbc73faa9f" d="M 0 0 
L 0 3.5 
" style="stroke: #000000; stroke-width: 0.8"/>
      </defs>
      <g>
       <use xlink:href="#mdbc73faa9f" x="45" y="320.4" style="stroke: #000000; stroke-width: 0.8"/>
      </g>
     </g>
     <g id="text_1">
      <!-- $\mathdefault{10^{0}}$ -->
      <g transform="translate(36.2 334.998438)scale(0.1 -0.1)">
       <defs>
        <path id="DejaVuSans-31" d="M 794 531 
L 1825 531 
L 1825 4091 
L 703 3866 
L 703 4441 
L 1819 4666 
L 2450 4666 
L 2450 531 
L 3481 531 
L 3481 0 
L 794 0 
L 794 531 
z
" transform="scale(0.015625)"/>
        <path id="DejaVuSans-30" d="M 2034 4250 
Q 1547 4250 1301 3770 
Q 1056 3291 1056 2328 
Q 1056 1369 1301 889 
Q 1547 409 2034 409 
Q 2525 409 2770 889 
Q 3016 1369 3016 2328 
Q 3016 3291 2770 3770 
Q 2525 4250 2034 4250 
z
M 2034 4750 
Q 2819 4750 3233 4129 
Q 3647 3509 3647 2328 
Q 3647 1150 3233 529 
Q 2819 -91 2034 -91 
Q 1250 -91 836 529 
Q 422 1150 422 2328 
Q 422 3509 836 4129 
Q 1250 4750 2034 4750 
z
" transform="scale(0.015625)"/>
       </defs>
       <use xlink:href="#DejaVuSans-31" transform="translate(0 0.765625)"/>
       <use xlink:href="#DejaVuSans-30" transform="translate(63.623047 0.765625)"/>
       <use xlink:href="#DejaVuSans-30" transform="translate(128.203125 39.046875)scale(0.7)"/>
      </g>
     </g>
    </g>
    <g id="xtick_2">
     <g id="line2d_3">
      <path d="M 91.5 320.4 
L 91.5 43.2 
" clip-path="url(#pe8c80e251d)" style="fill: none; stroke: #b0b0b0; stroke-width: 0.8; stroke-linecap: square"/>
     </g>
     <g id="line2d_4">
      <g>
       <use xlink:href="#mdbc73faa9f" x="91.5" y="320.4" style="stroke: #000000; stroke-width: 0.8"/>
      </g>
     </g>
     <g id="text_2">
      <!-- $\mathdefault{10^{1}}$ -->
      <g transform="translate(82.7 334.998438)scale(0.1 -0.1)">
       <use xlink:href="#DejaVuSans-31" transform="translate(0 0.684375)"/>
       <use xlink:href="#DejaVuSans-30" transform="translate(63.623047 0.684375)"/>
       <use xlink:href="#DejaVuSans-31" transform="translate(128.203125 38.965625)scale(0.7)"/>
      </g>
     </g>
    </g>
    <g id="xtick_3">
     <g id="line2d_5">
      <path d="M 138 320.4 
L 138 43.2 
" clip-path="url(#pe8c80e251d)" style="fill: none; stroke: #b0b0b0; stroke-width: 0.8; stroke-linecap: square"/>
     </g>
     <g id="line2d_6">
      <g>
       <use xlink:href="#mdbc73faa9f" x="138" y="320.4" style="stroke: #000000; stroke-width: 0.8"/>
      </g>
     </g>
     <g id="text_3">
      <!-- $\mathdefault{10^{2}}$ -->
      <g transform="translate(129.2 334.998438)scale(0.1 -0.1)">
       <defs>
        <path id="DejaVuSans-32" d="M 1228 531 
L 3431 531 
L 3431 0 
L 469 0 
L 469 531 
Q 828 903 1448 1529 
Q 2069 2156 2228 2338 
Q 2531 2678 2651 2914 
Q 2772 3150 2772 3378 
Q 2772 3750 2511 3984 
Q 2250 4219 1831 4219 
Q 1534 4219 1204 4116 
Q 875 4013 500 3803 
L 500 4441 
Q 881 4594 1212 4672 
Q 1544 4750 1819 4750 
Q 2544 4750 2975 4387 
Q 3406 4025 3406 3419 
Q 3406 3131 3298 2873 
Q 3191 2616 2906 2266 
Q 2828 2175 2409 1742 
Q 1991 1309 1228 531 
z
" transform="scale(0.015625)"/>
       </defs>
       <use xlink:href="#DejaVuSans-31" transform="translate(0 0.765625)"/>
       <use xlink:href="#DejaVuSans-30" transform="translate(63.623047 0.765625)"/>
       <use xlink:href="#DejaVuSans-32" transform="translate(128.203125 39.046875)scale(0.7)"/>
      </g>
     </g>
    </g>
    <g id="xtick_4">
     <g id="line2d_7">
      <path d="M 184.5 320.4 
L 184.5 43.2 
" clip-path="url(#pe8c80e251d)" style="fill: none; stroke: #b0b0b0; stroke-width: 0.8; stroke-linecap: square"/>
     </g>
     <g id="line2d_8">
      <g>
       <use xlink:href="#mdbc73faa9f" x="184.5" y="320.4" style="stroke: #000000; stroke-width: 0.8"/>
      </g>
     </g>
     <g id="text_4">
      <!-- $\mathdefault{10^{3}}$ -->
      <g transform="translate(175.7 334.998438)scale(0.1 -0.1)">
       <defs>
        <path id="DejaVuSans-33" d="M 2597 2516 
Q 3050 2419 3304 2112 
Q 3559 1806 3559 1356 
Q 3559 666 3084 287 
Q 2609 -91 1734 -91 
Q 1441 -91 1130 -33 
Q 819 25 488 141 
L 488 750 
Q 750 597 1062 519 
Q 1375 441 1716 441 
Q 2309 441 2620 675 
Q 2931 909 2931 1356 
Q 2931 1769 2642 2001 
Q 2353 2234 1838 2234 
L 1294 2234 
L 1294 2753 
L 1863 2753 
Q 2328 2753 2575 2939 
Q 2822 3125 2822 3475 
Q 2822 3834 2567 4026 
Q 2313 4219 1838 4219 
Q 1578 4219 1281 4162 
Q 984 4106 628 3988 
L 628 4550 
Q 988 4650 1302 4700 
Q 1616 4750 1894 4750 
Q 2613 4750 3031 4423 
Q 3450 4097 3450 3541 
Q 3450 3153 3228 2886 
Q 3006 2619 2597 2516 
z
" transform="scale(0.015625)"/>
       </defs>
       <use xlink:href="#DejaVuSans-31" transform="translate(0 0.765625)"/>
       <use xlink:href="#DejaVuSans-30" transform="translate(63.623047 0.765625)"/>
       <use xlink:href="#DejaVuSans-33" transform="translate(128.203125 39.046875)scale(0.7)"/>
      </g>
     </g>
    </g>
    <g id="xtick_5">
     <g id="line2d_9">
      <path d="M 231 320.4 
L 231 43.2 
" clip-path="url(#pe8c80e251d)" style="fill: none; stroke: #b0b0b0; stroke-width: 0.8; stroke-linecap: square"/>
     </g>
     <g id="line2d_10">
      <g>
       <use xlink:href="#mdbc73faa9f" x="231" y="320.4" style="stroke: #000000; stroke-width: 0.8"/>
      </g>
     </g>
     <g id="text_5">
      <!-- $\mathdefault{10^{4}}$ -->
      <g transform="translate(222.2 334.998438)scale(0.1 -0.1)">
       <defs>
        <path id="DejaVuSans-34" d="M 2419 4116 
L 825 1625 
L 2419 1625 
L 2419 4116 
z
M 2253 4666 
L 3047 4666 
L 3047 1625 
L 3713 1625 
L 3713 1100 
L 3047 1100 
L 3047 0 
L 2419 0 
L 2419 1100 
L 313 1100 
L 313 1709 
L 2253 4666 
z
" transform="scale(0.015625)"/>
       </defs>
       <use xlink:href="#DejaVuSans-31" transform="translate(0 0.684375)"/>
       <use xlink:href="#DejaVuSans-30" transform="translate(63.623047 0.684375)"/>
       <use xlink:href="#DejaVuSans-34" transform="translate(128.203125 38.965625)scale(0.7)"/>
      </g>
     </g>
    </g>
    <g id="xtick_6">
     <g id="line2d_11">
      <path d="M 277.5 320.4 
L 277.5 43.2 
" clip-path="url(#pe8c80e251d)" style="fill: none; stroke: #b0b0b0; stroke-width: 0.8; stroke-linecap: square"/>
     </g>
     <g id="line2d_12">
      <g>
       <use xlink:href="#mdbc73faa9f" x="277.5" y="320.4" style="stroke: #000000; stroke-width: 0.8"/>
      </g>
     </g>
     <g id="text_6">
      <!-- $\mathdefault{10^{5}}$ -->
      <g transform="translate(268.7 334.998438)scale(0.1 -0.1)">
       <defs>
        <path id="DejaVuSans-35" d="M 691 4666 
L 3169 4666 
L 3169 4134 
L 1269 4134 
L 1269 2991 
Q 1406 3038 1543 3061 
Q 1681 3084 1819 3084 
Q 2600 3084 3056 2656 
Q 3513 2228 3513 1497 
Q 3513 744 3044 326 
Q 2575 -91 1722 -91 
Q 1428 -91 1123 -41 
Q 819 9 494 109 
L 494 744 
Q 775 591 1075 516 
Q 1375 441 1709 441 
Q 2250 441 2565 725 
Q 2881 1009 2881 1497 
Q 2881 1984 2565 2268 
Q 2250 2553 1709 2553 
Q 1456 2553 1204 2497 
Q 953 2441 691 2322 
L 691 4666 
z
" transform="scale(0.015625)"/>
       </defs>
       <use xlink:href="#DejaVuSans-31" transform="translate(0 0.684375)"/>
       <use xlink:href="#DejaVuSans-30" transform="translate(63.623047 0.684375)"/>
       <use xlink:href="#DejaVuSans-35" transform="translate(128.203125 38.965625)scale(0.7)"/>
      </g>
     </g>
    </g>
    <g id="xtick_7">
     <g id="line2d_13">
      <path d="M 324 320.4 
L 324 43.2 
" clip-path="url(#pe8c80e251d)" style="fill: none; stroke: #b0b0b0; stroke-width: 0.8; stroke-linecap: square"/>
     </g>
     <g id="line2d_14">
      <g>
       <use xlink:href="#mdbc73faa9f" x="324" y="320.4" style="stroke: #000000; stroke-width: 0.8"/>
      </g>
     </g>
     <g id="text_7">
      <!-- $\mathdefault{10^{6}}$ -->
      <g transform="translate(315.2 334.998438)scale(0.1 -0.1)">
       <defs>
        <path id="DejaVuSans-36" d="M 2113 2584 
Q 1688 2584 1439 2293 
Q 1191 2003 1191 1497 
Q 1191 994 1439 701 
Q 1688 409 2113 409 
Q 2538 409 2786 701 
Q 3034 994 3034 1497 
Q 3034 2003 2786 2293 
Q 2538 2584 2113 2584 
z
M 3366 4563 
L 3366 3988 
Q 3128 4100 2886 4159 
Q 2644 4219 2406 4219 
Q 1781 4219 1451 3797 
Q 1122 3375 1075 2522 
Q 1259 2794 1537 2939 
Q 1816 3084 2150 3084 
Q 2853 3084 3261 2657 
Q 3669 2231 3669 1497 
Q 3669 778 3244 343 
Q 2819 -91 2113 -91 
Q 1303 -91 875 529 
Q 447 1150 447 2328 
Q 447 3434 972 4092 
Q 1497 4750 2381 4750 
Q 2619 4750 2861 4703 
Q 3103 4656 3366 4563 
z
" transform="scale(0.015625)"/>
       </defs>
       <use xlink:href="#DejaVuSans-31" transform="translate(0 0.765625)"/>
       <use xlink:href="#DejaVuSans-30" transform="translate(63.623047 0.765625)"/>
       <use xlink:href="#DejaVuSans-36" transform="translate(128.203125 39.046875)scale(0.7)"/>
      </g>
     </g>
    </g>
    <g id="xtick_8">
     <g id="line2d_15">
      <defs>
       <path id="mc4161cece8" d="M 0 0 
L 0 2 
" style="stroke: #000000; stroke-width: 0.6"/>
      </defs>
      <g>
       <use xlink:href="#mc4161cece8" x="58.997895" y="320.4" style="stroke: #000000; stroke-width: 0.6"/>
      </g>
     </g>
    </g>
    <g id="xtick_9">
     <g id="line2d_16">
      <g>
       <use xlink:href="#mc4161cece8" x="67.186138" y="320.4" style="stroke: #000000; stroke-width: 0.6"/>
      </g>
     </g>
    </g>
    <g id="xtick_10">
     <g id="line2d_17">
      <g>
       <use xlink:href="#mc4161cece8" x="72.99579" y="320.4" style="stroke: #000000; stroke-width: 0.6"/>
      </g>
     </g>
    </g>
    <g id="xtick_11">
     <g id="line2d_18">
      <g>
       <use xlink:href="#mc4161cece8" x="77.502105" y="320.4" style="stroke: #000000; stroke-width: 0.6"/>
      </g>
     </g>
    </g>
    <g id="xtick_12">
     <g id="line2d_19">
      <g>
       <use xlink:href="#mc4161cece8" x="81.184033" y="320.4" style="stroke: #000000; stroke-width: 0.6"/>
      </g>
     </g>
    </g>
    <g id="xtick_13">
     <g id="line2d_20">
      <g>
       <use xlink:href="#mc4161cece8" x="84.297059" y="320.4" style="stroke: #000000; stroke-width: 0.6"/>
      </g>
     </g>
    </g>
    <g id="xtick_14">
     <g id="line2d_21">
      <g>
       <use xlink:href="#mc4161cece8" x="86.993684" y="320.4" style="stroke: #000000; stroke-width: 0.6"/>
      </g>
     </g>
    </g>
    <g id="xtick_15">
     <g id="line2d_22">
      <g>
       <use xlink:href="#mc4161cece8" x="89.372277" y="320.4" style="stroke: #000000; stroke-width: 0.6"/>
      </g>
     </g>
    </g>
    <g id="xtick_16">
     <g id="line2d_23">
      <g>
       <use xlink:href="#mc4161cece8" x="105.497895" y="320.4" style="stroke: #000000; stroke-width: 0.6"/>
      </g>
     </g>
    </g>
    <g id="xtick_17">
     <g id="line2d_24">
      <g>
       <use xlink:href="#mc4161cece8" x="113.686138" y="320.4" style="stroke: #000000; stroke-width: 0.6"/>
      </g>
     </g>
    </g>
    <g id="xtick_18">
     <g id="line2d_25">
      <g>
       <use xlink:href="#mc4161cece8" x="119.49579" y="320.4" style="stroke: #000000; stroke-width: 0.6"/>
      </g>
     </g>
    </g>
    <g id="xtick_19">
     <g id="line2d_26">
      <g>
       <use xlink:href="#mc4161cece8" x="124.002105" y="320.4" style="stroke: #000000; stroke-width: 0.6"/>
      </g>
     </g>
    </g>
    <g id="xtick_20">
     <g id="line2d_27">
      <g>
       <use xlink:href="#mc4161cece8" x="127.684033" y="320.4" style="stroke: #000000; stroke-width: 0.6"/>
      </g>
     </g>
    </g>
    <g id="xtick_21">
     <g id="line2d_28">
      <g>
       <use xlink:href="#mc4161cece8" x="130.797059" y="320.4" style="stroke: #000000; stroke-width: 0.6"/>
      </g>
     </g>
    </g>
    <g id="xtick_22">
     <g id="line2d_29">
      <g>
       <use xlink:href="#mc4161cece8" x="133.493684" y="320.4" style="stroke: #000000; stroke-width: 0.6"/>
      </g>
     </g>
    </g>
    <g id="xtick_23">
     <g id="line2d_30">
      <g>
       <use xlink:href="#mc4161cece8" x="135.872277" y="320.4" style="stroke: #000000; stroke-width: 0.6"/>
      </g>
     </g>
    </g>
    <g id="xtick_24">
     <g id="line2d_31">
      <g>
       <use xlink:href="#mc4161cece8" x="151.997895" y="320.4" style="stroke: #000000; stroke-width: 0.6"/>
      </g>
     </g>
    </g>
    <g id="xtick_25">
     <g id="line2d_32">
      <g>
       <use xlink:href="#mc4161cece8" x="160.186138" y="320.4" style="stroke: #000000; stroke-width: 0.6"/>
      </g>
     </g>
    </g>
    <g id="xtick_26">
     <g id="line2d_33">
      <g>
       <use xlink:href="#mc4161cece8" x="165.99579" y="320.4" style="stroke: #000000; stroke-width: 0.6"/>
      </g>
     </g>
    </g>
    <g id="xtick_27">
     <g id="line2d_34">
      <g>
       <use xlink:href="#mc4161cece8" x="170.502105" y="320.4" style="stroke: #000000; stroke-width: 0.6"/>
      </g>
     </g>
    </g>
    <g id="xtick_28">
     <g id="line2d_35">
      <g>
       <use xlink:href="#mc4161cece8" x="174.184033" y="320.4" style="stroke: #000000; stroke-width: 0.6"/>
      </g>
     </g>
    </g>
    <g id="xtick_29">
     <g id="line2d_36">
      <g>
       <use xlink:href="#mc4161cece8" x="177.297059" y="320.4" style="stroke: #000000; stroke-width: 0.6"/>
      </g>
     </g>
    </g>
    <g id="xtick_30">
     <g id="line2d_37">
      <g>
       <use xlink:href="#mc4161cece8" x="179.993684" y="320.4" style="stroke: #000000; stroke-width: 0.6"/>
      </g>
     </g>
    </g>
    <g id="xtick_31">
     <g id="line2d_38">
      <g>
       <use xlink:href="#mc4161cece8" x="182.372277" y="320.4" style="stroke: #000000; stroke-width: 0.6"/>
      </g>
     </g>
    </g>
    <g id="xtick_32">
     <g id="line2d_39">
      <g>
       <use xlink:href="#mc4161cece8" x="198.497895" y="320.4" style="stroke: #000000; stroke-width: 0.6"/>
      </g>
     </g>
    </g>
    <g id="xtick_33">
     <g id="line2d_40">
      <g>
       <use xlink:href="#mc4161cece8" x="206.686138" y="320.4" style="stroke: #000000; stroke-width: 0.6"/>
      </g>
     </g>
    </g>
    <g id="xtick_34">
     <g id="line2d_41">
      <g>
       <use xlink:href="#mc4161cece8" x="212.49579" y="320.4" style="stroke: #000000; stroke-width: 0.6"/>
      </g>
     </g>
    </g>
    <g id="xtick_35">
     <g id="line2d_42">
      <g>
       <use xlink:href="#mc4161cece8" x="217.002105" y="320.4" style="stroke: #000000; stroke-width: 0.6"/>
      </g>
     </g>
    </g>
    <g id="xtick_36">
     <g id="line2d_43">
      <g>
       <use xlink:href="#mc4161cece8" x="220.684033" y="320.4" style="stroke: #000000; stroke-width: 0.6"/>
      </g>
     </g>
    </g>
    <g id="xtick_37">
     <g id="line2d_44">
      <g>
       <use xlink:href="#mc4161cece8" x="223.797059" y="320.4" style="stroke: #000000; stroke-width: 0.6"/>
      </g>
     </g>
    </g>
    <g id="xtick_38">
     <g id="line2d_45">
      <g>
       <use xlink:href="#mc4161cece8" x="226.493684" y="320.4" style="stroke: #000000; stroke-width: 0.6"/>
      </g>
     </g>
    </g>
    <g id="xtick_39">
     <g id="line2d_46">
      <g>
       <use xlink:href="#mc4161cece8" x="228.872277" y="320.4" style="stroke: #000000; stroke-width: 0.6"/>
      </g>
     </g>
    </g>
    <g id="xtick_40">
     <g id="line2d_47">
      <g>
       <use xlink:href="#mc4161cece8" x="244.997895" y="320.4" style="stroke: #000000; stroke-width: 0.6"/>
      </g>
     </g>
    </g>
    <g id="xtick_41">
     <g id="line2d_48">
      <g>
       <use xlink:href="#mc4161cece8" x="253.186138" y="320.4" style="stroke: #000000; stroke-width: 0.6"/>
      </g>
     </g>
    </g>
    <g id="xtick_42">
     <g id="line2d_49">
      <g>
       <use xlink:href="#mc4161cece8" x="258.99579" y="320.4" style="stroke: #000000; stroke-width: 0.6"/>
      </g>
     </g>
    </g>
    <g id="xtick_43">
     <g id="line2d_50">
      <g>
       <use xlink:href="#mc4161cece8" x="263.502105" y="320.4" style="stroke: #000000; stroke-width: 0.6"/>
      </g>
     </g>
    </g>
    <g id="xtick_44">
     <g id="line2d_51">
      <g>
       <use xlink:href="#mc4161cece8" x="267.184033" y="320.4" style="stroke: #000000; stroke-width: 0.6"/>
      </g>
     </g>
    </g>
    <g id="xtick_45">
     <g id="line2d_52">
      <g>
       <use xlink:href="#mc4161cece8" x="270.297059" y="320.4" style="stroke: #000000; stroke-width: 0.6"/>
      </g>
     </g>
    </g>
    <g id="xtick_46">
     <g id="line2d_53">
      <g>
       <use xlink:href="#mc4161cece8" x="272.993684" y="320.4" style="stroke: #000000; stroke-width: 0.6"/>
      </g>
     </g>
    </g>
    <g id="xtick_47">
     <g id="line2d_54">
      <g>
       <use xlink:href="#mc4161cece8" x="275.372277" y="320.4" style="stroke: #000000; stroke-width: 0.6"/>
      </g>
     </g>
    </g>
    <g id="xtick_48">
     <g id="line2d_55">
      <g>
       <use xlink:href="#mc4161cece8" x="291.497895" y="320.4" style="stroke: #000000; stroke-width: 0.6"/>
      </g>
     </g>
    </g>
    <g id="xtick_49">
     <g id="line2d_56">
      <g>
       <use xlink:href="#mc4161cece8" x="299.686138" y="320.4" style="stroke: #000000; stroke-width: 0.6"/>
      </g>
     </g>
    </g>
    <g id="xtick_50">
     <g id="line2d_57">
      <g>
       <use xlink:href="#mc4161cece8" x="305.49579" y="320.4" style="stroke: #000000; stroke-width: 0.6"/>
      </g>
     </g>
    </g>
    <g id="xtick_51">
     <g id="line2d_58">
      <g>
       <use xlink:href="#mc4161cece8" x="310.002105" y="320.4" style="stroke: #000000; stroke-width: 0.6"/>
      </g>
     </g>
    </g>
    <g id="xtick_52">
     <g id="line2d_59">
      <g>
       <use xlink:href="#mc4161cece8" x="313.684033" y="320.4" style="stroke: #000000; stroke-width: 0.6"/>
      </g>
     </g>
    </g>
    <g id="xtick_53">
     <g id="line2d_60">
      <g>
       <use xlink:href="#mc4161cece8" x="316.797059" y="320.4" style="stroke: #000000; stroke-width: 0.6"/>
      </g>
     </g>
    </g>
    <g id="xtick_54">
     <g id="line2d_61">
      <g>
       <use xlink:href="#mc4161cece8" x="319.493684" y="320.4" style="stroke: #000000; stroke-width: 0.6"/>
      </g>
     </g>
    </g>
    <g id="xtick_55">
     <g id="line2d_62">
      <g>
       <use xlink:href="#mc4161cece8" x="321.872277" y="320.4" style="stroke: #000000; stroke-width: 0.6"/>
      </g>
     </g>
    </g>
    <g id="text_8">
     <!-- Average Abundance -->
     <g transform="translate(134.213281 348.676562)scale(0.1 -0.1)">
      <defs>
       <path id="DejaVuSans-41" d="M 2188 4044 
L 1331 1722 
L 3047 1722 
L 2188 4044 
z
M 1831 4666 
L 2547 4666 
L 4325 0 
L 3669 0 
L 3244 1197 
L 1141 1197 
L 716 0 
L 50 0 
L 1831 4666 
z
" transform="scale(0.015625)"/>
       <path id="DejaVuSans-76" d="M 191 3500 
L 800 3500 
L 1894 563 
L 2988 3500 
L 3597 3500 
L 2284 0 
L 1503 0 
L 191 3500 
z
" transform="scale(0.015625)"/>
       <path id="DejaVuSans-65" d="M 3597 1894 
L 3597 1613 
L 953 1613 
Q 991 1019 1311 708 
Q 1631 397 2203 397 
Q 2534 397 2845 478 
Q 3156 559 3463 722 
L 3463 178 
Q 3153 47 2828 -22 
Q 2503 -91 2169 -91 
Q 1331 -91 842 396 
Q 353 884 353 1716 
Q 353 2575 817 3079 
Q 1281 3584 2069 3584 
Q 2775 3584 3186 3129 
Q 3597 2675 3597 1894 
z
M 3022 2063 
Q 3016 2534 2758 2815 
Q 2500 3097 2075 3097 
Q 1594 3097 1305 2825 
Q 1016 2553 972 2059 
L 3022 2063 
z
" transform="scale(0.015625)"/>
       <path id="DejaVuSans-72" d="M 2631 2963 
Q 2534 3019 2420 3045 
Q 2306 3072 2169 3072 
Q 1681 3072 1420 2755 
Q 1159 2438 1159 1844 
L 1159 0 
L 581 0 
L 581 3500 
L 1159 3500 
L 1159 2956 
Q 1341 3275 1631 3429 
Q 1922 3584 2338 3584 
Q 2397 3584 2469 3576 
Q 2541 3569 2628 3553 
L 2631 2963 
z
" transform="scale(0.015625)"/>
       <path id="DejaVuSans-61" d="M 2194 1759 
Q 1497 1759 1228 1600 
Q 959 1441 959 1056 
Q 959 750 1161 570 
Q 1363 391 1709 391 
Q 2188 391 2477 730 
Q 2766 1069 2766 1631 
L 2766 1759 
L 2194 1759 
z
M 3341 1997 
L 3341 0 
L 2766 0 
L 2766 531 
Q 2569 213 2275 61 
Q 1981 -91 1556 -91 
Q 1019 -91 701 211 
Q 384 513 384 1019 
Q 384 1609 779 1909 
Q 1175 2209 1959 2209 
L 2766 2209 
L 2766 2266 
Q 2766 2663 2505 2880 
Q 2244 3097 1772 3097 
Q 1472 3097 1187 3025 
Q 903 2953 641 2809 
L 641 3341 
Q 956 3463 1253 3523 
Q 1550 3584 1831 3584 
Q 2591 3584 2966 3190 
Q 3341 2797 3341 1997 
z
" transform="scale(0.015625)"/>
       <path id="DejaVuSans-67" d="M 2906 1791 
Q 2906 2416 2648 2759 
Q 2391 3103 1925 3103 
Q 1463 3103 1205 2759 
Q 947 2416 947 1791 
Q 947 1169 1205 825 
Q 1463 481 1925 481 
Q 2391 481 2648 825 
Q 2906 1169 2906 1791 
z
M 3481 434 
Q 3481 -459 3084 -895 
Q 2688 -1331 1869 -1331 
Q 1566 -1331 1297 -1286 
Q 1028 -1241 775 -1147 
L 775 -588 
Q 1028 -725 1275 -790 
Q 1522 -856 1778 -856 
Q 2344 -856 2625 -561 
Q 2906 -266 2906 331 
L 2906 616 
Q 2728 306 2450 153 
Q 2172 0 1784 0 
Q 1141 0 747 490 
Q 353 981 353 1791 
Q 353 2603 747 3093 
Q 1141 3584 1784 3584 
Q 2172 3584 2450 3431 
Q 2728 3278 2906 2969 
L 2906 3500 
L 3481 3500 
L 3481 434 
z
" transform="scale(0.015625)"/>
       <path id="DejaVuSans-20" transform="scale(0.015625)"/>
       <path id="DejaVuSans-62" d="M 3116 1747 
Q 3116 2381 2855 2742 
Q 2594 3103 2138 3103 
Q 1681 3103 1420 2742 
Q 1159 2381 1159 1747 
Q 1159 1113 1420 752 
Q 1681 391 2138 391 
Q 2594 391 2855 752 
Q 3116 1113 3116 1747 
z
M 1159 2969 
Q 1341 3281 1617 3432 
Q 1894 3584 2278 3584 
Q 2916 3584 3314 3078 
Q 3713 2572 3713 1747 
Q 3713 922 3314 415 
Q 2916 -91 2278 -91 
Q 1894 -91 1617 61 
Q 1341 213 1159 525 
L 1159 0 
L 581 0 
L 581 4863 
L 1159 4863 
L 1159 2969 
z
" transform="scale(0.015625)"/>
       <path id="DejaVuSans-75" d="M 544 1381 
L 544 3500 
L 1119 3500 
L 1119 1403 
Q 1119 906 1312 657 
Q 1506 409 1894 409 
Q 2359 409 2629 706 
Q 2900 1003 2900 1516 
L 2900 3500 
L 3475 3500 
L 3475 0 
L 2900 0 
L 2900 538 
Q 2691 219 2414 64 
Q 2138 -91 1772 -91 
Q 1169 -91 856 284 
Q 544 659 544 1381 
z
M 1991 3584 
L 1991 3584 
z
" transform="scale(0.015625)"/>
       <path id="DejaVuSans-6e" d="M 3513 2113 
L 3513 0 
L 2938 0 
L 2938 2094 
Q 2938 2591 2744 2837 
Q 2550 3084 2163 3084 
Q 1697 3084 1428 2787 
Q 1159 2491 1159 1978 
L 1159 0 
L 581 0 
L 581 3500 
L 1159 3500 
L 1159 2956 
Q 1366 3272 1645 3428 
Q 1925 3584 2291 3584 
Q 2894 3584 3203 3211 
Q 3513 2838 3513 2113 
z
" transform="scale(0.015625)"/>
       <path id="DejaVuSans-64" d="M 2906 2969 
L 2906 4863 
L 3481 4863 
L 3481 0 
L 2906 0 
L 2906 525 
Q 2725 213 2448 61 
Q 2172 -91 1784 -91 
Q 1150 -91 751 415 
Q 353 922 353 1747 
Q 353 2572 751 3078 
Q 1150 3584 1784 3584 
Q 2172 3584 2448 3432 
Q 2725 3281 2906 2969 
z
M 947 1747 
Q 947 1113 1208 752 
Q 1469 391 1925 391 
Q 2381 391 2643 752 
Q 2906 1113 2906 1747 
Q 2906 2381 2643 2742 
Q 2381 3103 1925 3103 
Q 1469 3103 1208 2742 
Q 947 2381 947 1747 
z
" transform="scale(0.015625)"/>
       <path id="DejaVuSans-63" d="M 3122 3366 
L 3122 2828 
Q 2878 2963 2633 3030 
Q 2388 3097 2138 3097 
Q 1578 3097 1268 2742 
Q 959 2388 959 1747 
Q 959 1106 1268 751 
Q 1578 397 2138 397 
Q 2388 397 2633 464 
Q 2878 531 3122 666 
L 3122 134 
Q 2881 22 2623 -34 
Q 2366 -91 2075 -91 
Q 1284 -91 818 406 
Q 353 903 353 1747 
Q 353 2603 823 3093 
Q 1294 3584 2113 3584 
Q 2378 3584 2631 3529 
Q 2884 3475 3122 3366 
z
" transform="scale(0.015625)"/>
      </defs>
      <use xlink:href="#DejaVuSans-41"/>
      <use xlink:href="#DejaVuSans-76" x="62.533203"/>
      <use xlink:href="#DejaVuSans-65" x="121.712891"/>
      <use xlink:href="#DejaVuSans-72" x="183.236328"/>
      <use xlink:href="#DejaVuSans-61" x="224.349609"/>
      <use xlink:href="#DejaVuSans-67" x="285.628906"/>
      <use xlink:href="#DejaVuSans-65" x="349.105469"/>
      <use xlink:href="#DejaVuSans-20" x="410.628906"/>
      <use xlink:href="#DejaVuSans-41" x="442.416016"/>
      <use xlink:href="#DejaVuSans-62" x="510.824219"/>
      <use xlink:href="#DejaVuSans-75" x="574.300781"/>
      <use xlink:href="#DejaVuSans-6e" x="637.679688"/>
      <use xlink:href="#DejaVuSans-64" x="701.058594"/>
      <use xlink:href="#DejaVuSans-61" x="764.535156"/>
      <use xlink:href="#DejaVuSans-6e" x="825.814453"/>
      <use xlink:href="#DejaVuSans-63" x="889.193359"/>
      <use xlink:href="#DejaVuSans-65" x="944.173828"/>
     </g>
    </g>
   </g>
   <g id="matplotlib.axis_2">
    <g id="ytick_1">
     <g id="line2d_63">
      <path d="M 45 315.9 
L 324 315.9 
" clip-path="url(#pe8c80e251d)" style="fill: none; stroke: #b0b0b0; stroke-width: 0.8; stroke-linecap: square"/>
     </g>
     <g id="line2d_64">
      <defs>
       <path id="mc67933c5a1" d="M 0 0 
L -3.5 0 
" style="stroke: #000000; stroke-width: 0.8"/>
      </defs>
      <g>
       <use xlink:href="#mc67933c5a1" x="45" y="315.9" style="stroke: #000000; stroke-width: 0.8"/>
      </g>
     </g>
     <g id="text_9">
      <!-- 0 -->
      <g transform="translate(31.6375 319.699219)scale(0.1 -0.1)">
       <use xlink:href="#DejaVuSans-30"/>
      </g>
     </g>
    </g>
    <g id="ytick_2">
     <g id="line2d_65">
      <path d="M 45 270.9 
L 324 270.9 
" clip-path="url(#pe8c80e251d)" style="fill: none; stroke: #b0b0b0; stroke-width: 0.8; stroke-linecap: square"/>
     </g>
     <g id="line2d_66">
      <g>
       <use xlink:href="#mc67933c5a1" x="45" y="270.9" style="stroke: #000000; stroke-width: 0.8"/>
      </g>
     </g>
     <g id="text_10">
      <!-- 50 -->
      <g transform="translate(25.275 274.699219)scale(0.1 -0.1)">
       <use xlink:href="#DejaVuSans-35"/>
       <use xlink:href="#DejaVuSans-30" x="63.623047"/>
      </g>
     </g>
    </g>
    <g id="ytick_3">
     <g id="line2d_67">
      <path d="M 45 225.9 
L 324 225.9 
" clip-path="url(#pe8c80e251d)" style="fill: none; stroke: #b0b0b0; stroke-width: 0.8; stroke-linecap: square"/>
     </g>
     <g id="line2d_68">
      <g>
       <use xlink:href="#mc67933c5a1" x="45" y="225.9" style="stroke: #000000; stroke-width: 0.8"/>
      </g>
     </g>
     <g id="text_11">
      <!-- 100 -->
      <g transform="translate(18.9125 229.699219)scale(0.1 -0.1)">
       <use xlink:href="#DejaVuSans-31"/>
       <use xlink:href="#DejaVuSans-30" x="63.623047"/>
       <use xlink:href="#DejaVuSans-30" x="127.246094"/>
      </g>
     </g>
    </g>
    <g id="ytick_4">
     <g id="line2d_69">
      <path d="M 45 180.9 
L 324 180.9 
" clip-path="url(#pe8c80e251d)" style="fill: none; stroke: #b0b0b0; stroke-width: 0.8; stroke-linecap: square"/>
     </g>
     <g id="line2d_70">
      <g>
       <use xlink:href="#mc67933c5a1" x="45" y="180.9" style="stroke: #000000; stroke-width: 0.8"/>
      </g>
     </g>
     <g id="text_12">
      <!-- 150 -->
      <g transform="translate(18.9125 184.699219)scale(0.1 -0.1)">
       <use xlink:href="#DejaVuSans-31"/>
       <use xlink:href="#DejaVuSans-35" x="63.623047"/>
       <use xlink:href="#DejaVuSans-30" x="127.246094"/>
      </g>
     </g>
    </g>
    <g id="ytick_5">
     <g id="line2d_71">
      <path d="M 45 135.9 
L 324 135.9 
" clip-path="url(#pe8c80e251d)" style="fill: none; stroke: #b0b0b0; stroke-width: 0.8; stroke-linecap: square"/>
     </g>
     <g id="line2d_72">
      <g>
       <use xlink:href="#mc67933c5a1" x="45" y="135.9" style="stroke: #000000; stroke-width: 0.8"/>
      </g>
     </g>
     <g id="text_13">
      <!-- 200 -->
      <g transform="translate(18.9125 139.699219)scale(0.1 -0.1)">
       <use xlink:href="#DejaVuSans-32"/>
       <use xlink:href="#DejaVuSans-30" x="63.623047"/>
       <use xlink:href="#DejaVuSans-30" x="127.246094"/>
      </g>
     </g>
    </g>
    <g id="ytick_6">
     <g id="line2d_73">
      <path d="M 45 90.9 
L 324 90.9 
" clip-path="url(#pe8c80e251d)" style="fill: none; stroke: #b0b0b0; stroke-width: 0.8; stroke-linecap: square"/>
     </g>
     <g id="line2d_74">
      <g>
       <use xlink:href="#mc67933c5a1" x="45" y="90.9" style="stroke: #000000; stroke-width: 0.8"/>
      </g>
     </g>
     <g id="text_14">
      <!-- 250 -->
      <g transform="translate(18.9125 94.699219)scale(0.1 -0.1)">
       <use xlink:href="#DejaVuSans-32"/>
       <use xlink:href="#DejaVuSans-35" x="63.623047"/>
       <use xlink:href="#DejaVuSans-30" x="127.246094"/>
      </g>
     </g>
    </g>
    <g id="ytick_7">
     <g id="line2d_75">
      <path d="M 45 45.9 
L 324 45.9 
" clip-path="url(#pe8c80e251d)" style="fill: none; stroke: #b0b0b0; stroke-width: 0.8; stroke-linecap: square"/>
     </g>
     <g id="line2d_76">
      <g>
       <use xlink:href="#mc67933c5a1" x="45" y="45.9" style="stroke: #000000; stroke-width: 0.8"/>
      </g>
     </g>
     <g id="text_15">
      <!-- 300 -->
      <g transform="translate(18.9125 49.699219)scale(0.1 -0.1)">
       <use xlink:href="#DejaVuSans-33"/>
       <use xlink:href="#DejaVuSans-30" x="63.623047"/>
       <use xlink:href="#DejaVuSans-30" x="127.246094"/>
      </g>
     </g>
    </g>
    <g id="text_16">
     <!-- Prevalence -->
     <g transform="translate(12.832812 209.230469)rotate(-90)scale(0.1 -0.1)">
      <defs>
       <path id="DejaVuSans-50" d="M 1259 4147 
L 1259 2394 
L 2053 2394 
Q 2494 2394 2734 2622 
Q 2975 2850 2975 3272 
Q 2975 3691 2734 3919 
Q 2494 4147 2053 4147 
L 1259 4147 
z
M 628 4666 
L 2053 4666 
Q 2838 4666 3239 4311 
Q 3641 3956 3641 3272 
Q 3641 2581 3239 2228 
Q 2838 1875 2053 1875 
L 1259 1875 
L 1259 0 
L 628 0 
L 628 4666 
z
" transform="scale(0.015625)"/>
       <path id="DejaVuSans-6c" d="M 603 4863 
L 1178 4863 
L 1178 0 
L 603 0 
L 603 4863 
z
" transform="scale(0.015625)"/>
      </defs>
      <use xlink:href="#DejaVuSans-50"/>
      <use xlink:href="#DejaVuSans-72" x="58.552734"/>
      <use xlink:href="#DejaVuSans-65" x="97.416016"/>
      <use xlink:href="#DejaVuSans-76" x="158.939453"/>
      <use xlink:href="#DejaVuSans-61" x="218.119141"/>
      <use xlink:href="#DejaVuSans-6c" x="279.398438"/>
      <use xlink:href="#DejaVuSans-65" x="307.181641"/>
      <use xlink:href="#DejaVuSans-6e" x="368.705078"/>
      <use xlink:href="#DejaVuSans-63" x="432.083984"/>
      <use xlink:href="#DejaVuSans-65" x="487.064453"/>
     </g>
    </g>
   </g>
   <g id="patch_3">
    <path d="M 45 320.4 
L 45 43.2 
" style="fill: none; stroke: #000000; stroke-width: 0.8; stroke-linejoin: miter; stroke-linecap: square"/>
   </g>
   <g id="patch_4">
    <path d="M 324 320.4 
L 324 43.2 
" style="fill: none; stroke: #000000; stroke-width: 0.8; stroke-linejoin: miter; stroke-linecap: square"/>
   </g>
   <g id="patch_5">
    <path d="M 45 320.4 
L 324 320.4 
" style="fill: none; stroke: #000000; stroke-width: 0.8; stroke-linejoin: miter; stroke-linecap: square"/>
   </g>
   <g id="patch_6">
    <path d="M 45 43.2 
L 324 43.2 
" style="fill: none; stroke: #000000; stroke-width: 0.8; stroke-linejoin: miter; stroke-linecap: square"/>
   </g>
   <g id="patch_7">
    <path d="M 23424.688199 70.2 
C 23424.688199 70.18807 23422.438293 70.176616 23417.689251 70.16818 
C 23411.468459 70.159744 23397.877876 70.155 22670.782808 70.155 
C -23014.813907 70.155 -23014.813907 70.159744 -23014.813907 70.16818 
C -23014.813907 70.176616 -23014.813907 70.18807 -23014.813907 70.2 
L -23014.813907 70.2 
L 23424.688199 70.2 
z
" style="fill: #ff9896; stroke: #ff9896; stroke-linejoin: miter"/>
   </g>
   <g id="patch_8">
    <path d="M -23014.813907 70.2 
C -23014.813907 70.21193 -23014.813907 70.223384 -23014.813907 70.23182 
C -23014.813907 70.240256 -23014.813907 70.245 -23014.813907 70.245 
C 23397.877876 70.245 23411.468459 70.240256 23417.689251 70.23182 
C 23422.438293 70.223384 23424.688199 70.21193 23424.688199 70.2 
L -23014.813907 70.2 
L -23014.813907 70.2 
z
" style="fill: #c49c94; stroke: #c49c94; stroke-linejoin: miter"/>
   </g>
   <g id="patch_9">
    <path d="M 23445.956857 67.5 
C 23445.956857 67.492101 23445.001351 67.48434 23443.052031 67.4775 
C 23440.89425 67.47066 23437.319615 67.464978 23431.958962 67.461029 
C 23424.639834 67.45708 23410.818458 67.455 22692.051467 67.455 
C -22993.545248 67.455 -22993.545248 67.45708 -22993.545248 67.461029 
L -22993.545248 67.5 
L 23445.956857 67.5 
z
" style="fill: #ff9896; stroke: #ff9896; stroke-linejoin: miter"/>
   </g>
   <g id="patch_10">
    <path d="M -22993.545248 67.461029 
C -22993.545248 67.464978 -22993.545248 67.47066 -22993.545248 67.4775 
C -22993.545248 67.48434 -22993.545248 67.492101 -22993.545248 67.5 
C -22993.545248 67.507899 -22993.545248 67.51566 -22993.545248 67.5225 
C -22993.545248 67.52934 -22993.545248 67.535022 -22993.545248 67.538971 
L -22993.545248 67.5 
L -22993.545248 67.461029 
z
" style="fill: #dbdb8d; stroke: #dbdb8d; stroke-linejoin: miter"/>
   </g>
   <g id="patch_11">
    <path d="M -22993.545248 67.538971 
C -22993.545248 67.54292 -22993.545248 67.545 -22993.545248 67.545 
C 23410.818458 67.545 23424.639834 67.54292 23431.958962 67.538971 
C 23437.319615 67.535022 23440.89425 67.52934 23443.052031 67.5225 
C 23445.001351 67.51566 23445.956857 67.507899 23445.956857 67.5 
L -22993.545248 67.5 
L -22993.545248 67.538971 
z
" style="fill: #17becf; stroke: #17becf; stroke-linejoin: miter"/>
   </g>
   <g id="patch_12">
    <path d="M 23462.255509 54.9 
C 23462.255509 54.88807 23460.005603 54.876616 23455.256561 54.86818 
C 23449.035769 54.859744 23435.445186 54.855 22708.350118 54.855 
C -22977.246597 54.855 -22977.246597 54.859744 -22977.246597 54.86818 
C -22977.246597 54.876616 -22977.246597 54.88807 -22977.246597 54.9 
L -22977.246597 54.9 
L 23462.255509 54.9 
z
" style="fill: #dbdb8d; stroke: #dbdb8d; stroke-linejoin: miter"/>
   </g>
   <g id="patch_13">
    <path d="M -22977.246597 54.9 
C -22977.246597 54.91193 -22977.246597 54.923384 -22977.246597 54.93182 
C -22977.246597 54.940256 -22977.246597 54.945 -22977.246597 54.945 
C 23435.445186 54.945 23449.035769 54.940256 23455.256561 54.93182 
C 23460.005603 54.923384 23462.255509 54.91193 23462.255509 54.9 
L -22977.246597 54.9 
L -22977.246597 54.9 
z
" style="fill: #17becf; stroke: #17becf; stroke-linejoin: miter"/>
   </g>
   <g id="patch_14">
    <path d="M 23448.989516 55.8 
C 23448.989516 55.792101 23448.034011 55.78434 23446.084691 55.7775 
C 23443.926909 55.77066 23440.352274 55.764978 23434.991621 55.761029 
C 23427.672493 55.75708 23413.851117 55.755 22695.084126 55.755 
C -22990.512589 55.755 -22990.512589 55.75708 -22990.512589 55.761029 
L -22990.512589 55.8 
L 23448.989516 55.8 
z
" style="fill: #98df8a; stroke: #98df8a; stroke-linejoin: miter"/>
   </g>
   <g id="patch_15">
    <path d="M -22990.512589 55.761029 
C -22990.512589 55.764978 -22990.512589 55.77066 -22990.512589 55.7775 
C -22990.512589 55.78434 -22990.512589 55.792101 -22990.512589 55.8 
C -22990.512589 55.807899 -22990.512589 55.81566 -22990.512589 55.8225 
C -22990.512589 55.82934 -22990.512589 55.835022 -22990.512589 55.838971 
L -22990.512589 55.8 
L -22990.512589 55.761029 
z
" style="fill: #9467bd; stroke: #9467bd; stroke-linejoin: miter"/>
   </g>
   <g id="patch_16">
    <path d="M -22990.512589 55.838971 
C -22990.512589 55.84292 -22990.512589 55.845 -22990.512589 55.845 
C 23413.851117 55.845 23427.672493 55.84292 23434.991621 55.838971 
C 23440.352274 55.835022 23443.926909 55.82934 23446.084691 55.8225 
C 23448.034011 55.81566 23448.989516 55.807899 23448.989516 55.8 
L -22990.512589 55.8 
L -22990.512589 55.838971 
z
" style="fill: #8c564b; stroke: #8c564b; stroke-linejoin: miter"/>
   </g>
   <g id="patch_17">
    <path d="M 23386.886275 78.3 
C 23386.886275 78.292101 23385.93077 78.28434 23383.98145 78.2775 
C 23381.823668 78.27066 23378.249033 78.264978 23372.88838 78.261029 
C 23365.569252 78.25708 23351.747876 78.255 22632.980885 78.255 
C -23052.61583 78.255 -23052.61583 78.25708 -23052.61583 78.261029 
L -23052.61583 78.3 
L 23386.886275 78.3 
z
" style="fill: #98df8a; stroke: #98df8a; stroke-linejoin: miter"/>
   </g>
   <g id="patch_18">
    <path d="M -23052.61583 78.261029 
C -23052.61583 78.264978 -23052.61583 78.27066 -23052.61583 78.2775 
C -23052.61583 78.28434 -23052.61583 78.292101 -23052.61583 78.3 
C -23052.61583 78.307899 -23052.61583 78.31566 -23052.61583 78.3225 
C -23052.61583 78.32934 -23052.61583 78.335022 -23052.61583 78.338971 
L -23052.61583 78.3 
L -23052.61583 78.261029 
z
" style="fill: #9467bd; stroke: #9467bd; stroke-linejoin: miter"/>
   </g>
   <g id="patch_19">
    <path d="M -23052.61583 78.338971 
C -23052.61583 78.34292 -23052.61583 78.345 -23052.61583 78.345 
C 23351.747876 78.345 23365.569252 78.34292 23372.88838 78.338971 
C 23378.249033 78.335022 23381.823668 78.32934 23383.98145 78.3225 
C 23385.93077 78.31566 23386.886275 78.307899 23386.886275 78.3 
L -23052.61583 78.3 
L -23052.61583 78.338971 
z
" style="fill: #8c564b; stroke: #8c564b; stroke-linejoin: miter"/>
   </g>
   <g id="patch_20">
    <path d="M 23414.702716 101.7 
C 23414.702716 101.68807 23412.45281 101.676616 23407.703768 101.66818 
C 23401.482976 101.659744 23387.892393 101.655 22660.797325 101.655 
C -23024.79939 101.655 -23024.79939 101.659744 -23024.79939 101.66818 
C -23024.79939 101.676616 -23024.79939 101.68807 -23024.79939 101.7 
L -23024.79939 101.7 
L 23414.702716 101.7 
z
" style="fill: #1f77b4; stroke: #1f77b4; stroke-linejoin: miter"/>
   </g>
   <g id="patch_21">
    <path d="M -23024.79939 101.7 
C -23024.79939 101.71193 -23024.79939 101.723384 -23024.79939 101.73182 
C -23024.79939 101.740256 -23024.79939 101.745 -23024.79939 101.745 
C 23387.892393 101.745 23401.482976 101.740256 23407.703768 101.73182 
C 23412.45281 101.723384 23414.702716 101.71193 23414.702716 101.7 
L -23024.79939 101.7 
L -23024.79939 101.7 
z
" style="fill: #c49c94; stroke: #c49c94; stroke-linejoin: miter"/>
   </g>
   <g id="patch_22">
    <path d="M 23441.032561 60.3 
C 23441.032561 60.28807 23438.782656 60.276616 23434.033614 60.26818 
C 23427.812821 60.259744 23414.222239 60.255 22687.127171 60.255 
C -22998.469544 60.255 -22998.469544 60.259744 -22998.469544 60.26818 
C -22998.469544 60.276616 -22998.469544 60.28807 -22998.469544 60.3 
L -22998.469544 60.3 
L 23441.032561 60.3 
z
" style="fill: #9467bd; stroke: #9467bd; stroke-linejoin: miter"/>
   </g>
   <g id="patch_23">
    <path d="M -22998.469544 60.3 
C -22998.469544 60.31193 -22998.469544 60.323384 -22998.469544 60.33182 
C -22998.469544 60.340256 -22998.469544 60.345 -22998.469544 60.345 
C 23414.222239 60.345 23427.812821 60.340256 23434.033614 60.33182 
C 23438.782656 60.323384 23441.032561 60.31193 23441.032561 60.3 
L -22998.469544 60.3 
L -22998.469544 60.3 
z
" style="fill: #8c564b; stroke: #8c564b; stroke-linejoin: miter"/>
   </g>
   <g id="patch_24">
    <path d="M 23439.123476 58.5 
C 23439.123476 58.48807 23436.87357 58.476616 23432.124529 58.46818 
C 23425.903736 58.459744 23412.313154 58.455 22685.218086 58.455 
C -23000.378629 58.455 -23000.378629 58.459744 -23000.378629 58.46818 
C -23000.378629 58.476616 -23000.378629 58.48807 -23000.378629 58.5 
L -23000.378629 58.5 
L 23439.123476 58.5 
z
" style="fill: #ff9896; stroke: #ff9896; stroke-linejoin: miter"/>
   </g>
   <g id="patch_25">
    <path d="M -23000.378629 58.5 
C -23000.378629 58.51193 -23000.378629 58.523384 -23000.378629 58.53182 
C -23000.378629 58.540256 -23000.378629 58.545 -23000.378629 58.545 
C 23412.313154 58.545 23425.903736 58.540256 23432.124529 58.53182 
C 23436.87357 58.523384 23439.123476 58.51193 23439.123476 58.5 
L -23000.378629 58.5 
L -23000.378629 58.5 
z
" style="fill: #dbdb8d; stroke: #dbdb8d; stroke-linejoin: miter"/>
   </g>
   <g id="patch_26">
    <path d="M 23405.761781 92.7 
C 23405.761781 92.68807 23403.511875 92.676616 23398.762834 92.66818 
C 23392.542041 92.659744 23378.951459 92.655 22651.856391 92.655 
C -23033.740324 92.655 -23033.740324 92.659744 -23033.740324 92.66818 
C -23033.740324 92.676616 -23033.740324 92.68807 -23033.740324 92.7 
L -23033.740324 92.7 
L 23405.761781 92.7 
z
" style="fill: #1f77b4; stroke: #1f77b4; stroke-linejoin: miter"/>
   </g>
   <g id="patch_27">
    <path d="M -23033.740324 92.7 
C -23033.740324 92.71193 -23033.740324 92.723384 -23033.740324 92.73182 
C -23033.740324 92.740256 -23033.740324 92.745 -23033.740324 92.745 
C 23378.951459 92.745 23392.542041 92.740256 23398.762834 92.73182 
C 23403.511875 92.723384 23405.761781 92.71193 23405.761781 92.7 
L -23033.740324 92.7 
L -23033.740324 92.7 
z
" style="fill: #c49c94; stroke: #c49c94; stroke-linejoin: miter"/>
   </g>
   <g id="patch_28">
    <path d="M 23451.385995 75.6 
C 23451.385995 75.58807 23449.136089 75.576616 23444.387048 75.56818 
C 23438.166255 75.559744 23424.575673 75.555 22697.480605 75.555 
L -22988.11611 75.6 
L 23451.385995 75.6 
z
" style="fill: #1f77b4; stroke: #1f77b4; stroke-linejoin: miter"/>
   </g>
   <g id="patch_29">
    <path d="M 22697.480605 75.555 
C -22988.11611 75.555 -22988.11611 75.559744 -22988.11611 75.56818 
C -22988.11611 75.576616 -22988.11611 75.58807 -22988.11611 75.6 
L -22988.11611 75.6 
L 22697.480605 75.555 
z
" style="fill: #ff9896; stroke: #ff9896; stroke-linejoin: miter"/>
   </g>
   <g id="patch_30">
    <path d="M -22988.11611 75.6 
C -22988.11611 75.61193 -22988.11611 75.623384 -22988.11611 75.63182 
C -22988.11611 75.640256 -22988.11611 75.645 -22988.11611 75.645 
L -22988.11611 75.6 
L -22988.11611 75.6 
z
" style="fill: #dbdb8d; stroke: #dbdb8d; stroke-linejoin: miter"/>
   </g>
   <g id="patch_31">
    <path d="M -22988.11611 75.645 
C 23424.575673 75.645 23438.166255 75.640256 23444.387048 75.63182 
C 23449.136089 75.623384 23451.385995 75.61193 23451.385995 75.6 
L -22988.11611 75.6 
L -22988.11611 75.645 
z
" style="fill: #17becf; stroke: #17becf; stroke-linejoin: miter"/>
   </g>
   <g id="patch_32">
    <path d="M 23371.552889 85.5 
C 23371.552889 85.492101 23370.597383 85.48434 23368.648063 85.4775 
C 23366.490281 85.47066 23362.915646 85.464978 23357.554994 85.461029 
C 23350.235865 85.45708 23336.41449 85.455 22617.647498 85.455 
C -23067.949217 85.455 -23067.949217 85.45708 -23067.949217 85.461029 
L -23067.949217 85.5 
L 23371.552889 85.5 
z
" style="fill: #ff9896; stroke: #ff9896; stroke-linejoin: miter"/>
   </g>
   <g id="patch_33">
    <path d="M -23067.949217 85.461029 
C -23067.949217 85.464978 -23067.949217 85.47066 -23067.949217 85.4775 
C -23067.949217 85.48434 -23067.949217 85.492101 -23067.949217 85.5 
C -23067.949217 85.507899 -23067.949217 85.51566 -23067.949217 85.5225 
C -23067.949217 85.52934 -23067.949217 85.535022 -23067.949217 85.538971 
L -23067.949217 85.5 
L -23067.949217 85.461029 
z
" style="fill: #dbdb8d; stroke: #dbdb8d; stroke-linejoin: miter"/>
   </g>
   <g id="patch_34">
    <path d="M -23067.949217 85.538971 
C -23067.949217 85.54292 -23067.949217 85.545 -23067.949217 85.545 
C 23336.41449 85.545 23350.235865 85.54292 23357.554994 85.538971 
C 23362.915646 85.535022 23366.490281 85.52934 23368.648063 85.5225 
C 23370.597383 85.51566 23371.552889 85.507899 23371.552889 85.5 
L -23067.949217 85.5 
L -23067.949217 85.538971 
z
" style="fill: #17becf; stroke: #17becf; stroke-linejoin: miter"/>
   </g>
   <g id="patch_35">
    <path d="M 23452.873143 58.5 
C 23452.873143 58.48807 23450.623237 58.476616 23445.874195 58.46818 
C 23439.653403 58.459744 23426.062821 58.455 22698.967753 58.455 
C -22986.628962 58.455 -22986.628962 58.459744 -22986.628962 58.46818 
C -22986.628962 58.476616 -22986.628962 58.48807 -22986.628962 58.5 
L -22986.628962 58.5 
L 23452.873143 58.5 
z
" style="fill: #98df8a; stroke: #98df8a; stroke-linejoin: miter"/>
   </g>
   <g id="patch_36">
    <path d="M -22986.628962 58.5 
C -22986.628962 58.51193 -22986.628962 58.523384 -22986.628962 58.53182 
C -22986.628962 58.540256 -22986.628962 58.545 -22986.628962 58.545 
C 23426.062821 58.545 23439.653403 58.540256 23445.874195 58.53182 
C 23450.623237 58.523384 23452.873143 58.51193 23452.873143 58.5 
L -22986.628962 58.5 
L -22986.628962 58.5 
z
" style="fill: #c7c7c7; stroke: #c7c7c7; stroke-linejoin: miter"/>
   </g>
   <g id="patch_37">
    <path d="M 23421.905375 63.9 
C 23421.905375 63.88807 23419.65547 63.876616 23414.906428 63.86818 
C 23408.685636 63.859744 23395.095053 63.855 22667.999985 63.855 
C -23017.59673 63.855 -23017.59673 63.859744 -23017.59673 63.86818 
C -23017.59673 63.876616 -23017.59673 63.88807 -23017.59673 63.9 
L -23017.59673 63.9 
L 23421.905375 63.9 
z
" style="fill: #9467bd; stroke: #9467bd; stroke-linejoin: miter"/>
   </g>
   <g id="patch_38">
    <path d="M -23017.59673 63.9 
C -23017.59673 63.91193 -23017.59673 63.923384 -23017.59673 63.93182 
C -23017.59673 63.940256 -23017.59673 63.945 -23017.59673 63.945 
C 23395.095053 63.945 23408.685636 63.940256 23414.906428 63.93182 
C 23419.65547 63.923384 23421.905375 63.91193 23421.905375 63.9 
L -23017.59673 63.9 
L -23017.59673 63.9 
z
" style="fill: #8c564b; stroke: #8c564b; stroke-linejoin: miter"/>
   </g>
   <g id="patch_39">
    <path d="M 23445.390074 57.6 
C 23445.390074 57.58807 23443.140168 57.576616 23438.391127 57.56818 
C 23432.170334 57.559744 23418.579752 57.555 22691.484684 57.555 
C -22994.112031 57.555 -22994.112031 57.559744 -22994.112031 57.56818 
C -22994.112031 57.576616 -22994.112031 57.58807 -22994.112031 57.6 
L -22994.112031 57.6 
L 23445.390074 57.6 
z
" style="fill: #ff9896; stroke: #ff9896; stroke-linejoin: miter"/>
   </g>
   <g id="patch_40">
    <path d="M -22994.112031 57.6 
C -22994.112031 57.61193 -22994.112031 57.623384 -22994.112031 57.63182 
C -22994.112031 57.640256 -22994.112031 57.645 -22994.112031 57.645 
C 23418.579752 57.645 23432.170334 57.640256 23438.391127 57.63182 
C 23443.140168 57.623384 23445.390074 57.61193 23445.390074 57.6 
L -22994.112031 57.6 
L -22994.112031 57.6 
z
" style="fill: #c49c94; stroke: #c49c94; stroke-linejoin: miter"/>
   </g>
   <g id="patch_41">
    <path d="M 23430.694288 70.2 
C 23430.694288 70.18807 23428.444382 70.176616 23423.69534 70.16818 
C 23417.474548 70.159744 23403.883965 70.155 22676.788898 70.155 
C -23008.807818 70.155 -23008.807818 70.159744 -23008.807818 70.16818 
C -23008.807818 70.176616 -23008.807818 70.18807 -23008.807818 70.2 
L -23008.807818 70.2 
L 23430.694288 70.2 
z
" style="fill: #8c564b; stroke: #8c564b; stroke-linejoin: miter"/>
   </g>
   <g id="patch_42">
    <path d="M -23008.807818 70.2 
C -23008.807818 70.21193 -23008.807818 70.223384 -23008.807818 70.23182 
C -23008.807818 70.240256 -23008.807818 70.245 -23008.807818 70.245 
C 23403.883965 70.245 23417.474548 70.240256 23423.69534 70.23182 
C 23428.444382 70.223384 23430.694288 70.21193 23430.694288 70.2 
L -23008.807818 70.2 
L -23008.807818 70.2 
z
" style="fill: #c7c7c7; stroke: #c7c7c7; stroke-linejoin: miter"/>
   </g>
   <g id="patch_43">
    <path d="M 23452.0813 59.4 
C 23452.0813 59.392101 23451.125794 59.38434 23449.176474 59.3775 
C 23447.018692 59.37066 23443.444057 59.364978 23438.083405 59.361029 
C 23430.764277 59.35708 23416.942901 59.355 22698.17591 59.355 
C -22987.420805 59.355 -22987.420805 59.35708 -22987.420805 59.361029 
L -22987.420805 59.4 
L 23452.0813 59.4 
z
" style="fill: #98df8a; stroke: #98df8a; stroke-linejoin: miter"/>
   </g>
   <g id="patch_44">
    <path d="M -22987.420805 59.361029 
C -22987.420805 59.364978 -22987.420805 59.37066 -22987.420805 59.3775 
C -22987.420805 59.38434 -22987.420805 59.392101 -22987.420805 59.4 
C -22987.420805 59.407899 -22987.420805 59.41566 -22987.420805 59.4225 
C -22987.420805 59.42934 -22987.420805 59.435022 -22987.420805 59.438971 
L -22987.420805 59.4 
L -22987.420805 59.361029 
z
" style="fill: #9467bd; stroke: #9467bd; stroke-linejoin: miter"/>
   </g>
   <g id="patch_45">
    <path d="M -22987.420805 59.438971 
C -22987.420805 59.44292 -22987.420805 59.445 -22987.420805 59.445 
C 23416.942901 59.445 23430.764277 59.44292 23438.083405 59.438971 
C 23443.444057 59.435022 23447.018692 59.42934 23449.176474 59.4225 
C 23451.125794 59.41566 23452.0813 59.407899 23452.0813 59.4 
L -22987.420805 59.4 
L -22987.420805 59.438971 
z
" style="fill: #8c564b; stroke: #8c564b; stroke-linejoin: miter"/>
   </g>
   <g id="patch_46">
    <path d="M 23446.740336 63.9 
C 23446.740336 63.88807 23444.49043 63.876616 23439.741388 63.86818 
C 23433.520596 63.859744 23419.930013 63.855 22692.834945 63.855 
C -22992.76177 63.855 -22992.76177 63.859744 -22992.76177 63.86818 
C -22992.76177 63.876616 -22992.76177 63.88807 -22992.76177 63.9 
L -22992.76177 63.9 
L 23446.740336 63.9 
z
" style="fill: #ff9896; stroke: #ff9896; stroke-linejoin: miter"/>
   </g>
   <g id="patch_47">
    <path d="M -22992.76177 63.9 
C -22992.76177 63.91193 -22992.76177 63.923384 -22992.76177 63.93182 
C -22992.76177 63.940256 -22992.76177 63.945 -22992.76177 63.945 
C 23419.930013 63.945 23433.520596 63.940256 23439.741388 63.93182 
C 23444.49043 63.923384 23446.740336 63.91193 23446.740336 63.9 
L -22992.76177 63.9 
L -22992.76177 63.9 
z
" style="fill: #dbdb8d; stroke: #dbdb8d; stroke-linejoin: miter"/>
   </g>
   <g id="patch_48">
    <path d="M 23423.236044 68.4 
C 23423.236044 68.392101 23422.280538 68.38434 23420.331218 68.3775 
C 23418.173436 68.37066 23414.598801 68.364978 23409.238149 68.361029 
C 23401.91902 68.35708 23388.097645 68.355 22669.330653 68.355 
C -23016.266062 68.355 -23016.266062 68.35708 -23016.266062 68.361029 
L -23016.266062 68.4 
L 23423.236044 68.4 
z
" style="fill: #98df8a; stroke: #98df8a; stroke-linejoin: miter"/>
   </g>
   <g id="patch_49">
    <path d="M -23016.266062 68.361029 
C -23016.266062 68.364978 -23016.266062 68.37066 -23016.266062 68.3775 
C -23016.266062 68.38434 -23016.266062 68.392101 -23016.266062 68.4 
C -23016.266062 68.407899 -23016.266062 68.41566 -23016.266062 68.4225 
C -23016.266062 68.42934 -23016.266062 68.435022 -23016.266062 68.438971 
L -23016.266062 68.4 
L -23016.266062 68.361029 
z
" style="fill: #9467bd; stroke: #9467bd; stroke-linejoin: miter"/>
   </g>
   <g id="patch_50">
    <path d="M -23016.266062 68.438971 
C -23016.266062 68.44292 -23016.266062 68.445 -23016.266062 68.445 
C 23388.097645 68.445 23401.91902 68.44292 23409.238149 68.438971 
C 23414.598801 68.435022 23418.173436 68.42934 23420.331218 68.4225 
C 23422.280538 68.41566 23423.236044 68.407899 23423.236044 68.4 
L -23016.266062 68.4 
L -23016.266062 68.438971 
z
" style="fill: #c7c7c7; stroke: #c7c7c7; stroke-linejoin: miter"/>
   </g>
   <g id="patch_51">
    <path d="M 23405.821154 62.1 
C 23405.821154 62.08807 23403.571248 62.076616 23398.822206 62.06818 
C 23392.601414 62.059744 23379.010832 62.055 22651.915764 62.055 
C -23033.680951 62.055 -23033.680951 62.059744 -23033.680951 62.06818 
C -23033.680951 62.076616 -23033.680951 62.08807 -23033.680951 62.1 
L -23033.680951 62.1 
L 23405.821154 62.1 
z
" style="fill: #ff9896; stroke: #ff9896; stroke-linejoin: miter"/>
   </g>
   <g id="patch_52">
    <path d="M -23033.680951 62.1 
C -23033.680951 62.11193 -23033.680951 62.123384 -23033.680951 62.13182 
C -23033.680951 62.140256 -23033.680951 62.145 -23033.680951 62.145 
C 23379.010832 62.145 23392.601414 62.140256 23398.822206 62.13182 
C 23403.571248 62.123384 23405.821154 62.11193 23405.821154 62.1 
L -23033.680951 62.1 
L -23033.680951 62.1 
z
" style="fill: #dbdb8d; stroke: #dbdb8d; stroke-linejoin: miter"/>
   </g>
   <g id="patch_53">
    <path d="M 23445.805612 72.9 
C 23445.805612 72.88807 23443.555706 72.876616 23438.806664 72.86818 
C 23432.585872 72.859744 23418.99529 72.855 22691.900222 72.855 
L -22993.696493 72.9 
L 23445.805612 72.9 
z
" style="fill: #98df8a; stroke: #98df8a; stroke-linejoin: miter"/>
   </g>
   <g id="patch_54">
    <path d="M 22691.900222 72.855 
C -22993.696493 72.855 -22993.696493 72.859744 -22993.696493 72.86818 
C -22993.696493 72.876616 -22993.696493 72.88807 -22993.696493 72.9 
L -22993.696493 72.9 
L 22691.900222 72.855 
z
" style="fill: #9467bd; stroke: #9467bd; stroke-linejoin: miter"/>
   </g>
   <g id="patch_55">
    <path d="M -22993.696493 72.9 
C -22993.696493 72.91193 -22993.696493 72.923384 -22993.696493 72.93182 
C -22993.696493 72.940256 -22993.696493 72.945 -22993.696493 72.945 
L -22993.696493 72.9 
L -22993.696493 72.9 
z
" style="fill: #8c564b; stroke: #8c564b; stroke-linejoin: miter"/>
   </g>
   <g id="patch_56">
    <path d="M -22993.696493 72.945 
C 23418.99529 72.945 23432.585872 72.940256 23438.806664 72.93182 
C 23443.555706 72.923384 23445.805612 72.91193 23445.805612 72.9 
L -22993.696493 72.9 
L -22993.696493 72.945 
z
" style="fill: #c7c7c7; stroke: #c7c7c7; stroke-linejoin: miter"/>
   </g>
   <g id="patch_57">
    <path d="M 23340.264327 127.8 
C 23340.264327 127.78807 23338.014422 127.776616 23333.26538 127.76818 
C 23327.044588 127.759744 23313.454005 127.755 22586.358937 127.755 
C -23099.237778 127.755 -23099.237778 127.759744 -23099.237778 127.76818 
C -23099.237778 127.776616 -23099.237778 127.78807 -23099.237778 127.8 
L -23099.237778 127.8 
L 23340.264327 127.8 
z
" style="fill: #aec7e8; stroke: #aec7e8; stroke-linejoin: miter"/>
   </g>
   <g id="patch_58">
    <path d="M -23099.237778 127.8 
C -23099.237778 127.81193 -23099.237778 127.823384 -23099.237778 127.83182 
C -23099.237778 127.840256 -23099.237778 127.845 -23099.237778 127.845 
C 23313.454005 127.845 23327.044588 127.840256 23333.26538 127.83182 
C 23338.014422 127.823384 23340.264327 127.81193 23340.264327 127.8 
L -23099.237778 127.8 
L -23099.237778 127.8 
z
" style="fill: #c7c7c7; stroke: #c7c7c7; stroke-linejoin: miter"/>
   </g>
   <g id="patch_59">
    <path d="M 23462.880207 56.7 
C 23462.880207 56.68807 23460.630302 56.676616 23455.88126 56.66818 
C 23449.660468 56.659744 23436.069885 56.655 22708.974817 56.655 
C -22976.621898 56.655 -22976.621898 56.659744 -22976.621898 56.66818 
C -22976.621898 56.676616 -22976.621898 56.68807 -22976.621898 56.7 
L -22976.621898 56.7 
L 23462.880207 56.7 
z
" style="fill: #9467bd; stroke: #9467bd; stroke-linejoin: miter"/>
   </g>
   <g id="patch_60">
    <path d="M -22976.621898 56.7 
C -22976.621898 56.71193 -22976.621898 56.723384 -22976.621898 56.73182 
C -22976.621898 56.740256 -22976.621898 56.745 -22976.621898 56.745 
C 23436.069885 56.745 23449.660468 56.740256 23455.88126 56.73182 
C 23460.630302 56.723384 23462.880207 56.71193 23462.880207 56.7 
L -22976.621898 56.7 
L -22976.621898 56.7 
z
" style="fill: #8c564b; stroke: #8c564b; stroke-linejoin: miter"/>
   </g>
   <g id="patch_61">
    <path d="M 23397.716087 63 
C 23397.716087 62.98807 23395.466181 62.976616 23390.717139 62.96818 
C 23384.496347 62.959744 23370.905765 62.955 22643.810697 62.955 
C -23041.786018 62.955 -23041.786018 62.959744 -23041.786018 62.96818 
C -23041.786018 62.976616 -23041.786018 62.98807 -23041.786018 63 
L -23041.786018 63 
L 23397.716087 63 
z
" style="fill: #1f77b4; stroke: #1f77b4; stroke-linejoin: miter"/>
   </g>
   <g id="patch_62">
    <path d="M -23041.786018 63 
C -23041.786018 63.01193 -23041.786018 63.023384 -23041.786018 63.03182 
C -23041.786018 63.040256 -23041.786018 63.045 -23041.786018 63.045 
C 23370.905765 63.045 23384.496347 63.040256 23390.717139 63.03182 
C 23395.466181 63.023384 23397.716087 63.01193 23397.716087 63 
L -23041.786018 63 
L -23041.786018 63 
z
" style="fill: #c49c94; stroke: #c49c94; stroke-linejoin: miter"/>
   </g>
   <g id="patch_63">
    <path d="M 23432.907293 55.8 
C 23432.907293 55.78807 23430.657388 55.776616 23425.908346 55.76818 
C 23419.687554 55.759744 23406.096971 55.755 22679.001903 55.755 
C -23006.594812 55.755 -23006.594812 55.759744 -23006.594812 55.76818 
C -23006.594812 55.776616 -23006.594812 55.78807 -23006.594812 55.8 
L -23006.594812 55.8 
L 23432.907293 55.8 
z
" style="fill: #ff9896; stroke: #ff9896; stroke-linejoin: miter"/>
   </g>
   <g id="patch_64">
    <path d="M -23006.594812 55.8 
C -23006.594812 55.81193 -23006.594812 55.823384 -23006.594812 55.83182 
C -23006.594812 55.840256 -23006.594812 55.845 -23006.594812 55.845 
C 23406.096971 55.845 23419.687554 55.840256 23425.908346 55.83182 
C 23430.657388 55.823384 23432.907293 55.81193 23432.907293 55.8 
L -23006.594812 55.8 
L -23006.594812 55.8 
z
" style="fill: #c49c94; stroke: #c49c94; stroke-linejoin: miter"/>
   </g>
   <g id="patch_65">
    <path d="M 23443.4604 59.4 
C 23443.4604 59.38807 23441.210494 59.376616 23436.461453 59.36818 
C 23430.24066 59.359744 23416.650078 59.355 22689.55501 59.355 
L -22996.041705 59.4 
L 23443.4604 59.4 
z
" style="fill: #1f77b4; stroke: #1f77b4; stroke-linejoin: miter"/>
   </g>
   <g id="patch_66">
    <path d="M 22689.55501 59.355 
C -22996.041705 59.355 -22996.041705 59.359744 -22996.041705 59.36818 
C -22996.041705 59.376616 -22996.041705 59.38807 -22996.041705 59.4 
L -22996.041705 59.4 
L 22689.55501 59.355 
z
" style="fill: #ff9896; stroke: #ff9896; stroke-linejoin: miter"/>
   </g>
   <g id="patch_67">
    <path d="M -22996.041705 59.4 
C -22996.041705 59.41193 -22996.041705 59.423384 -22996.041705 59.43182 
C -22996.041705 59.440256 -22996.041705 59.445 -22996.041705 59.445 
L -22996.041705 59.4 
L -22996.041705 59.4 
z
" style="fill: #dbdb8d; stroke: #dbdb8d; stroke-linejoin: miter"/>
   </g>
   <g id="patch_68">
    <path d="M -22996.041705 59.445 
C 23416.650078 59.445 23430.24066 59.440256 23436.461453 59.43182 
C 23441.210494 59.423384 23443.4604 59.41193 23443.4604 59.4 
L -22996.041705 59.4 
L -22996.041705 59.445 
z
" style="fill: #17becf; stroke: #17becf; stroke-linejoin: miter"/>
   </g>
   <g id="patch_69">
    <path d="M 23464.093755 56.7 
C 23464.093755 56.68807 23461.843849 56.676616 23457.094808 56.66818 
C 23450.874015 56.659744 23437.283433 56.655 22710.188365 56.655 
C -22975.40835 56.655 -22975.40835 56.659744 -22975.40835 56.66818 
C -22975.40835 56.676616 -22975.40835 56.68807 -22975.40835 56.7 
L -22975.40835 56.7 
L 23464.093755 56.7 
z
" style="fill: #dbdb8d; stroke: #dbdb8d; stroke-linejoin: miter"/>
   </g>
   <g id="patch_70">
    <path d="M -22975.40835 56.7 
C -22975.40835 56.71193 -22975.40835 56.723384 -22975.40835 56.73182 
C -22975.40835 56.740256 -22975.40835 56.745 -22975.40835 56.745 
C 23437.283433 56.745 23450.874015 56.740256 23457.094808 56.73182 
C 23461.843849 56.723384 23464.093755 56.71193 23464.093755 56.7 
L -22975.40835 56.7 
L -22975.40835 56.7 
z
" style="fill: #17becf; stroke: #17becf; stroke-linejoin: miter"/>
   </g>
   <g id="patch_71">
    <path d="M 23381.472636 99 
C 23381.472636 98.98807 23379.222731 98.976616 23374.473689 98.96818 
C 23368.252896 98.959744 23354.662314 98.955 22627.567246 98.955 
C -23058.029469 98.955 -23058.029469 98.959744 -23058.029469 98.96818 
C -23058.029469 98.976616 -23058.029469 98.98807 -23058.029469 99 
L -23058.029469 99 
L 23381.472636 99 
z
" style="fill: #1f77b4; stroke: #1f77b4; stroke-linejoin: miter"/>
   </g>
   <g id="patch_72">
    <path d="M -23058.029469 99 
C -23058.029469 99.01193 -23058.029469 99.023384 -23058.029469 99.03182 
C -23058.029469 99.040256 -23058.029469 99.045 -23058.029469 99.045 
C 23354.662314 99.045 23368.252896 99.040256 23374.473689 99.03182 
C 23379.222731 99.023384 23381.472636 99.01193 23381.472636 99 
L -23058.029469 99 
L -23058.029469 99 
z
" style="fill: #c49c94; stroke: #c49c94; stroke-linejoin: miter"/>
   </g>
   <g id="patch_73">
    <path d="M 23444.513396 76.5 
C 23444.513396 76.48807 23442.26349 76.476616 23437.514449 76.46818 
C 23431.293656 76.459744 23417.703074 76.455 22690.608006 76.455 
C -22994.988709 76.455 -22994.988709 76.459744 -22994.988709 76.46818 
C -22994.988709 76.476616 -22994.988709 76.48807 -22994.988709 76.5 
L -22994.988709 76.5 
L 23444.513396 76.5 
z
" style="fill: #9467bd; stroke: #9467bd; stroke-linejoin: miter"/>
   </g>
   <g id="patch_74">
    <path d="M -22994.988709 76.5 
C -22994.988709 76.51193 -22994.988709 76.523384 -22994.988709 76.53182 
C -22994.988709 76.540256 -22994.988709 76.545 -22994.988709 76.545 
C 23417.703074 76.545 23431.293656 76.540256 23437.514449 76.53182 
C 23442.26349 76.523384 23444.513396 76.51193 23444.513396 76.5 
L -22994.988709 76.5 
L -22994.988709 76.5 
z
" style="fill: #8c564b; stroke: #8c564b; stroke-linejoin: miter"/>
   </g>
   <g id="patch_75">
    <path d="M 23347.375919 146.7 
C 23347.375919 146.68807 23345.126013 146.676616 23340.376972 146.66818 
C 23334.156179 146.659744 23320.565597 146.655 22593.470529 146.655 
C -23092.126186 146.655 -23092.126186 146.659744 -23092.126186 146.66818 
C -23092.126186 146.676616 -23092.126186 146.68807 -23092.126186 146.7 
L -23092.126186 146.7 
L 23347.375919 146.7 
z
" style="fill: #aec7e8; stroke: #aec7e8; stroke-linejoin: miter"/>
   </g>
   <g id="patch_76">
    <path d="M -23092.126186 146.7 
C -23092.126186 146.71193 -23092.126186 146.723384 -23092.126186 146.73182 
C -23092.126186 146.740256 -23092.126186 146.745 -23092.126186 146.745 
C 23320.565597 146.745 23334.156179 146.740256 23340.376972 146.73182 
C 23345.126013 146.723384 23347.375919 146.71193 23347.375919 146.7 
L -23092.126186 146.7 
L -23092.126186 146.7 
z
" style="fill: #c7c7c7; stroke: #c7c7c7; stroke-linejoin: miter"/>
   </g>
   <g id="patch_77">
    <path d="M 23433.544208 76.5 
C 23433.544208 76.48807 23431.294302 76.476616 23426.545261 76.46818 
C 23420.324468 76.459744 23406.733886 76.455 22679.638818 76.455 
C -23005.957897 76.455 -23005.957897 76.459744 -23005.957897 76.46818 
C -23005.957897 76.476616 -23005.957897 76.48807 -23005.957897 76.5 
L -23005.957897 76.5 
L 23433.544208 76.5 
z
" style="fill: #98df8a; stroke: #98df8a; stroke-linejoin: miter"/>
   </g>
   <g id="patch_78">
    <path d="M -23005.957897 76.5 
C -23005.957897 76.51193 -23005.957897 76.523384 -23005.957897 76.53182 
C -23005.957897 76.540256 -23005.957897 76.545 -23005.957897 76.545 
C 23406.733886 76.545 23420.324468 76.540256 23426.545261 76.53182 
C 23431.294302 76.523384 23433.544208 76.51193 23433.544208 76.5 
L -23005.957897 76.5 
L -23005.957897 76.5 
z
" style="fill: #c7c7c7; stroke: #c7c7c7; stroke-linejoin: miter"/>
   </g>
   <g id="patch_79">
    <path d="M 23441.370316 81.9 
C 23441.370316 81.88807 23439.120411 81.876616 23434.371369 81.86818 
C 23428.150576 81.859744 23414.559994 81.855 22687.464926 81.855 
C -22998.131789 81.855 -22998.131789 81.859744 -22998.131789 81.86818 
C -22998.131789 81.876616 -22998.131789 81.88807 -22998.131789 81.9 
L -22998.131789 81.9 
L 23441.370316 81.9 
z
" style="fill: #8c564b; stroke: #8c564b; stroke-linejoin: miter"/>
   </g>
   <g id="patch_80">
    <path d="M -22998.131789 81.9 
C -22998.131789 81.91193 -22998.131789 81.923384 -22998.131789 81.93182 
C -22998.131789 81.940256 -22998.131789 81.945 -22998.131789 81.945 
C 23414.559994 81.945 23428.150576 81.940256 23434.371369 81.93182 
C 23439.120411 81.923384 23441.370316 81.91193 23441.370316 81.9 
L -22998.131789 81.9 
L -22998.131789 81.9 
z
" style="fill: #c7c7c7; stroke: #c7c7c7; stroke-linejoin: miter"/>
   </g>
   <g id="patch_81">
    <path d="M 23390.106839 90.9 
C 23390.106839 90.88807 23387.856934 90.876616 23383.107892 90.86818 
C 23376.8871 90.859744 23363.296517 90.855 22636.201449 90.855 
C -23049.395266 90.855 -23049.395266 90.859744 -23049.395266 90.86818 
C -23049.395266 90.876616 -23049.395266 90.88807 -23049.395266 90.9 
L -23049.395266 90.9 
L 23390.106839 90.9 
z
" style="fill: #9467bd; stroke: #9467bd; stroke-linejoin: miter"/>
   </g>
   <g id="patch_82">
    <path d="M -23049.395266 90.9 
C -23049.395266 90.91193 -23049.395266 90.923384 -23049.395266 90.93182 
C -23049.395266 90.940256 -23049.395266 90.945 -23049.395266 90.945 
C 23363.296517 90.945 23376.8871 90.940256 23383.107892 90.93182 
C 23387.856934 90.923384 23390.106839 90.91193 23390.106839 90.9 
L -23049.395266 90.9 
L -23049.395266 90.9 
z
" style="fill: #8c564b; stroke: #8c564b; stroke-linejoin: miter"/>
   </g>
   <g id="patch_83">
    <path d="M 23422.220126 79.2 
C 23422.220126 79.18807 23419.97022 79.176616 23415.221179 79.16818 
C 23409.000386 79.159744 23395.409804 79.155 22668.314736 79.155 
C -23017.281979 79.155 -23017.281979 79.159744 -23017.281979 79.16818 
C -23017.281979 79.176616 -23017.281979 79.18807 -23017.281979 79.2 
L -23017.281979 79.2 
L 23422.220126 79.2 
z
" style="fill: #9467bd; stroke: #9467bd; stroke-linejoin: miter"/>
   </g>
   <g id="patch_84">
    <path d="M -23017.281979 79.2 
C -23017.281979 79.21193 -23017.281979 79.223384 -23017.281979 79.23182 
C -23017.281979 79.240256 -23017.281979 79.245 -23017.281979 79.245 
C 23395.409804 79.245 23409.000386 79.240256 23415.221179 79.23182 
C 23419.97022 79.223384 23422.220126 79.21193 23422.220126 79.2 
L -23017.281979 79.2 
L -23017.281979 79.2 
z
" style="fill: #8c564b; stroke: #8c564b; stroke-linejoin: miter"/>
   </g>
   <g id="patch_85">
    <path d="M 23453.037538 74.7 
C 23453.037538 74.68807 23450.787632 74.676616 23446.03859 74.66818 
C 23439.817798 74.659744 23426.227215 74.655 22699.132147 74.655 
C -22986.464568 74.655 -22986.464568 74.659744 -22986.464568 74.66818 
C -22986.464568 74.676616 -22986.464568 74.68807 -22986.464568 74.7 
L -22986.464568 74.7 
L 23453.037538 74.7 
z
" style="fill: #1f77b4; stroke: #1f77b4; stroke-linejoin: miter"/>
   </g>
   <g id="patch_86">
    <path d="M -22986.464568 74.7 
C -22986.464568 74.71193 -22986.464568 74.723384 -22986.464568 74.73182 
C -22986.464568 74.740256 -22986.464568 74.745 -22986.464568 74.745 
C 23426.227215 74.745 23439.817798 74.740256 23446.03859 74.73182 
C 23450.787632 74.723384 23453.037538 74.71193 23453.037538 74.7 
L -22986.464568 74.7 
L -22986.464568 74.7 
z
" style="fill: #c49c94; stroke: #c49c94; stroke-linejoin: miter"/>
   </g>
   <g id="patch_87">
    <path d="M 23450.482218 74.7 
C 23450.482218 74.692101 23449.526712 74.68434 23447.577392 74.6775 
C 23445.419611 74.67066 23441.844976 74.664978 23436.484323 74.661029 
C 23429.165195 74.65708 23415.343819 74.655 22696.576828 74.655 
C -22989.019887 74.655 -22989.019887 74.65708 -22989.019887 74.661029 
L -22989.019887 74.7 
L 23450.482218 74.7 
z
" style="fill: #ff9896; stroke: #ff9896; stroke-linejoin: miter"/>
   </g>
   <g id="patch_88">
    <path d="M -22989.019887 74.661029 
C -22989.019887 74.664978 -22989.019887 74.67066 -22989.019887 74.6775 
C -22989.019887 74.68434 -22989.019887 74.692101 -22989.019887 74.7 
C -22989.019887 74.707899 -22989.019887 74.71566 -22989.019887 74.7225 
C -22989.019887 74.72934 -22989.019887 74.735022 -22989.019887 74.738971 
L -22989.019887 74.7 
L -22989.019887 74.661029 
z
" style="fill: #dbdb8d; stroke: #dbdb8d; stroke-linejoin: miter"/>
   </g>
   <g id="patch_89">
    <path d="M -22989.019887 74.738971 
C -22989.019887 74.74292 -22989.019887 74.745 -22989.019887 74.745 
C 23415.343819 74.745 23429.165195 74.74292 23436.484323 74.738971 
C 23441.844976 74.735022 23445.419611 74.72934 23447.577392 74.7225 
C 23449.526712 74.71566 23450.482218 74.707899 23450.482218 74.7 
L -22989.019887 74.7 
L -22989.019887 74.738971 
z
" style="fill: #17becf; stroke: #17becf; stroke-linejoin: miter"/>
   </g>
   <g id="patch_90">
    <path d="M 23457.369046 75.6 
C 23457.369046 75.58807 23455.11914 75.576616 23450.370098 75.56818 
C 23444.149306 75.559744 23430.558723 75.555 22703.463655 75.555 
C -22982.13306 75.555 -22982.13306 75.559744 -22982.13306 75.56818 
C -22982.13306 75.576616 -22982.13306 75.58807 -22982.13306 75.6 
L -22982.13306 75.6 
L 23457.369046 75.6 
z
" style="fill: #1f77b4; stroke: #1f77b4; stroke-linejoin: miter"/>
   </g>
   <g id="patch_91">
    <path d="M -22982.13306 75.6 
C -22982.13306 75.61193 -22982.13306 75.623384 -22982.13306 75.63182 
C -22982.13306 75.640256 -22982.13306 75.645 -22982.13306 75.645 
C 23430.558723 75.645 23444.149306 75.640256 23450.370098 75.63182 
C 23455.11914 75.623384 23457.369046 75.61193 23457.369046 75.6 
L -22982.13306 75.6 
L -22982.13306 75.6 
z
" style="fill: #c49c94; stroke: #c49c94; stroke-linejoin: miter"/>
   </g>
   <g id="patch_92">
    <path d="M 23433.869772 76.5 
C 23433.869772 76.48807 23431.619867 76.476616 23426.870825 76.46818 
C 23420.650032 76.459744 23407.05945 76.455 22679.964382 76.455 
C -23005.632333 76.455 -23005.632333 76.459744 -23005.632333 76.46818 
C -23005.632333 76.476616 -23005.632333 76.48807 -23005.632333 76.5 
L -23005.632333 76.5 
L 23433.869772 76.5 
z
" style="fill: #1f77b4; stroke: #1f77b4; stroke-linejoin: miter"/>
   </g>
   <g id="patch_93">
    <path d="M -23005.632333 76.5 
C -23005.632333 76.51193 -23005.632333 76.523384 -23005.632333 76.53182 
C -23005.632333 76.540256 -23005.632333 76.545 -23005.632333 76.545 
C 23407.05945 76.545 23420.650032 76.540256 23426.870825 76.53182 
C 23431.619867 76.523384 23433.869772 76.51193 23433.869772 76.5 
L -23005.632333 76.5 
L -23005.632333 76.5 
z
" style="fill: #c49c94; stroke: #c49c94; stroke-linejoin: miter"/>
   </g>
  </g>
 </g>
 <defs>
  <clipPath id="pe8c80e251d">
   <rect x="45" y="43.2" width="279" height="277.2"/>
  </clipPath>
 </defs>
</svg>
